<?xml version="1.0" standalone="no"?>
<!DOCTYPE svg PUBLIC "-//W3C//DTD SVG 20010904//EN"
 "http://www.w3.org/TR/2001/REC-SVG-20010904/DTD/svg10.dtd">
<svg version="1.0" xmlns="http://www.w3.org/2000/svg"
 width="1009.000000pt" height="1009.000000pt" viewBox="0 0 1009.000000 1009.000000"
 preserveAspectRatio="xMidYMid meet">
<metadata>
Created by potrace 1.14, written by Peter Selinger 2001-2017
</metadata>
<g transform="translate(0.000000,1009.000000) scale(0.100000,-0.100000)"
fill="#000000" stroke="none">
<path d="M2200 8753 c0 -7 -7 -10 -15 -7 -8 4 -15 1 -15 -6 0 -10 -3 -10 -15
0 -11 9 -15 9 -15 1 0 -7 -4 -9 -10 -6 -5 3 -10 0 -10 -7 0 -9 -3 -9 -8 -2 -9
14 -42 14 -42 1 0 -6 -3 -7 -7 -4 -3 4 -12 2 -20 -4 -10 -9 -13 -8 -13 2 0 9
-3 10 -8 4 -7 -10 -27 -17 -49 -18 -7 0 -13 -4 -13 -8 0 -4 -9 -6 -20 -4 -11
2 -20 0 -20 -5 0 -5 -9 -7 -20 -5 -11 2 -18 0 -15 -4 8 -14 -22 -20 -34 -8 -9
9 -11 8 -5 -7 5 -14 3 -17 -7 -14 -7 2 -21 -5 -31 -16 -10 -12 -17 -16 -18 -8
0 6 5 12 12 12 6 0 8 3 5 7 -4 3 -16 -2 -27 -13 -33 -33 -48 -43 -54 -37 -3 3
-17 -6 -31 -21 -14 -15 -30 -24 -37 -20 -6 4 -8 3 -5 -3 3 -5 -4 -16 -16 -24
-35 -23 -96 -86 -90 -93 4 -3 1 -6 -6 -6 -7 0 -9 -4 -6 -10 3 -5 -1 -10 -9
-10 -9 0 -16 -7 -16 -15 0 -9 -6 -18 -14 -21 -8 -3 -12 -12 -9 -20 4 -12 -6
-18 -28 -16 -3 1 -5 -10 -3 -23 1 -14 -4 -28 -12 -33 -7 -4 -15 -17 -17 -29
-1 -11 -8 -27 -14 -35 -6 -7 -9 -21 -8 -31 2 -9 -1 -15 -5 -12 -5 3 -11 1 -14
-4 -4 -5 -1 -13 5 -17 8 -5 8 -8 0 -13 -6 -4 -13 -18 -16 -30 -2 -13 -10 -30
-17 -39 -11 -14 -10 -15 6 -9 16 7 17 5 5 -9 -7 -9 -14 -29 -15 -46 -2 -16 -8
-37 -16 -46 -11 -13 -11 -14 1 -7 11 6 13 4 8 -8 -4 -10 -10 -24 -13 -32 -4
-8 -1 -15 6 -15 9 0 9 -4 3 -12 -15 -19 -14 -270 1 -261 6 3 6 0 -1 -8 -15
-15 -17 -33 -4 -24 11 6 8 -35 -4 -54 -5 -9 -4 -12 2 -8 6 4 14 0 17 -9 3 -8
2 -12 -4 -9 -6 3 -10 1 -10 -4 0 -6 4 -11 8 -11 5 0 7 -13 6 -30 -1 -16 3 -30
8 -30 7 0 7 -5 -1 -13 -6 -9 -7 -17 -1 -23 5 -5 10 -24 12 -42 1 -17 6 -32 10
-32 4 0 8 -5 8 -11 0 -5 -5 -7 -11 -3 -6 3 -4 -5 5 -18 9 -14 13 -28 10 -31
-4 -4 -3 -12 3 -19 5 -7 10 -26 11 -42 1 -17 7 -33 13 -37 8 -5 8 -9 -1 -14
-8 -5 -6 -11 7 -21 13 -10 14 -13 4 -14 -11 0 -11 -4 2 -18 10 -10 17 -33 17
-51 0 -21 4 -30 11 -25 8 5 10 -3 7 -24 -2 -17 -1 -29 3 -26 10 6 22 -33 14
-46 -3 -5 2 -10 12 -10 15 0 16 -2 3 -10 -9 -6 -10 -10 -3 -10 6 0 10 -9 8
-20 -2 -11 1 -23 7 -26 7 -5 8 -2 3 7 -5 8 -4 11 1 6 9 -9 11 -14 13 -48 0
-11 5 -18 10 -15 4 3 7 -6 5 -19 -1 -14 2 -25 7 -25 6 0 7 -4 4 -10 -3 -5 -1
-10 5 -10 6 0 8 -4 5 -10 -3 -5 -2 -10 4 -10 6 0 7 -7 4 -17 -5 -12 -3 -14 7
-8 10 6 12 4 7 -8 -3 -9 1 -23 9 -32 8 -8 12 -19 9 -25 -3 -5 -1 -10 5 -10 6
0 8 -4 5 -10 -3 -5 -1 -10 4 -10 6 0 11 -12 11 -26 0 -14 4 -23 10 -19 6 3 10
-5 10 -19 0 -14 5 -28 10 -31 6 -3 10 -15 10 -26 0 -11 5 -17 10 -14 6 3 10
-3 10 -15 0 -12 4 -18 10 -15 6 3 7 -1 4 -9 -4 -10 1 -18 11 -22 13 -5 14 -9
3 -15 -10 -7 -11 -9 0 -9 7 0 10 -4 7 -10 -3 -5 -1 -10 5 -10 6 0 9 -4 6 -9
-4 -5 -1 -11 4 -13 6 -2 12 -13 13 -25 0 -12 5 -19 9 -17 4 3 8 -2 8 -10 0 -9
5 -16 11 -16 5 0 7 -5 3 -12 -4 -6 0 -16 8 -22 17 -13 32 -46 29 -65 -1 -8 2
-10 10 -5 9 5 10 2 6 -10 -4 -10 -3 -15 3 -11 9 5 12 -1 9 -21 0 -4 4 -10 9
-13 6 -3 12 -13 14 -21 2 -8 11 -23 21 -34 13 -15 14 -22 5 -28 -9 -5 -8 -8 5
-8 9 0 16 -6 15 -12 -2 -7 3 -12 10 -10 8 1 11 -2 8 -7 -4 -5 1 -16 9 -25 9
-8 15 -17 15 -18 -3 -9 16 -45 29 -56 13 -11 13 -12 1 -7 -8 4 -6 -2 6 -12 11
-10 20 -26 18 -36 -1 -9 3 -20 8 -24 7 -4 8 -1 3 7 -6 9 -4 11 4 6 7 -5 10
-15 7 -23 -3 -8 -2 -11 3 -8 9 5 27 -32 23 -47 -1 -5 5 -8 13 -8 8 0 15 -4 15
-10 0 -17 3 -25 17 -38 7 -8 11 -18 8 -23 -4 -5 1 -9 10 -9 11 0 15 -5 11 -16
-3 -8 -2 -12 4 -9 6 3 10 -1 10 -9 0 -9 5 -16 10 -16 6 0 10 -7 10 -15 0 -8 5
-15 12 -15 6 0 9 -3 5 -6 -3 -4 -1 -12 6 -20 29 -32 37 -44 37 -53 0 -5 7 -12
16 -15 9 -3 14 -12 11 -19 -2 -6 5 -21 17 -33 12 -11 22 -27 24 -35 2 -7 10
-19 18 -25 7 -6 14 -16 14 -23 0 -6 5 -11 10 -11 6 0 10 -5 10 -11 0 -6 8 -18
18 -27 10 -10 12 -13 5 -8 -10 6 -12 4 -7 -8 3 -9 13 -16 21 -16 8 0 17 -9 20
-20 3 -11 9 -17 14 -15 4 3 6 -4 4 -15 -3 -13 0 -18 7 -14 7 5 9 1 5 -9 -4
-10 -2 -16 5 -14 6 1 18 -11 28 -28 10 -16 22 -29 28 -28 6 2 9 -3 6 -11 -3
-7 2 -16 10 -19 9 -4 16 -14 16 -22 0 -9 4 -14 8 -11 4 2 8 -4 8 -14 0 -10 -3
-17 -6 -16 -8 4 -39 -32 -33 -38 3 -3 -5 -15 -18 -27 -13 -11 -17 -17 -9 -13
9 4 7 -2 -5 -13 -11 -11 -24 -18 -29 -15 -5 3 -6 0 -3 -5 4 -6 -4 -22 -17 -36
-13 -14 -21 -28 -18 -31 3 -3 0 -6 -7 -6 -8 0 -11 -6 -7 -16 3 -9 2 -12 -5 -9
-6 4 -13 -2 -16 -14 -3 -12 -9 -21 -14 -21 -5 0 -9 -7 -9 -15 0 -8 -7 -15 -16
-15 -8 0 -13 -4 -10 -8 3 -5 -3 -18 -14 -29 -10 -12 -16 -24 -13 -27 4 -3 0
-6 -7 -6 -7 0 -11 -3 -7 -6 7 -8 -16 -33 -25 -28 -4 3 -5 -4 -3 -15 3 -14 -1
-18 -11 -14 -10 3 -12 0 -9 -10 4 -8 -1 -17 -10 -21 -9 -3 -14 -10 -11 -15 3
-5 -1 -12 -10 -15 -9 -4 -14 -13 -10 -21 3 -9 0 -15 -10 -15 -8 0 -13 -4 -10
-9 3 -5 -1 -14 -9 -21 -8 -7 -13 -16 -10 -20 3 -4 -2 -11 -11 -14 -9 -3 -12
-11 -8 -18 5 -7 2 -9 -8 -5 -11 4 -15 0 -14 -11 2 -9 -3 -23 -11 -30 -7 -8
-10 -18 -7 -24 4 -7 2 -8 -4 -4 -7 4 -19 -9 -30 -34 -10 -22 -21 -37 -25 -34
-3 4 -5 -3 -2 -15 3 -19 -5 -26 -27 -22 -4 0 -5 -6 -2 -14 4 -8 1 -15 -5 -15
-6 0 -10 -3 -9 -7 3 -13 -42 -93 -52 -93 -5 0 -7 -6 -4 -13 2 -7 -5 -23 -16
-35 -11 -12 -20 -24 -20 -27 1 -27 -2 -35 -11 -35 -5 0 -7 5 -3 12 4 7 3 8 -5
4 -6 -4 -9 -11 -6 -16 3 -5 1 -11 -5 -15 -5 -3 -10 -15 -10 -25 0 -10 -7 -25
-15 -33 -8 -8 -11 -17 -8 -21 4 -3 1 -6 -6 -6 -7 0 -11 -6 -8 -13 5 -14 -18
-39 -27 -29 -4 3 -4 -2 0 -12 5 -13 4 -17 -3 -13 -6 4 -10 1 -10 -6 1 -19 -24
-77 -33 -77 -5 0 -7 -9 -5 -21 3 -16 0 -19 -13 -14 -9 3 -13 3 -10 0 4 -4 -2
-23 -13 -42 -11 -19 -17 -38 -14 -44 4 -5 1 -9 -5 -9 -6 0 -8 -4 -5 -10 3 -5
2 -10 -4 -10 -5 0 -11 -10 -13 -22 -2 -13 -9 -22 -16 -20 -8 1 -11 -2 -7 -8
10 -15 -5 -51 -17 -44 -7 5 -9 1 -5 -9 6 -17 -25 -91 -35 -81 -4 3 -5 -2 -4
-13 2 -10 -1 -23 -6 -30 -5 -7 -7 -17 -3 -23 3 -5 1 -10 -4 -10 -6 0 -10 -6
-8 -12 1 -7 -3 -12 -10 -11 -6 1 -10 -5 -9 -15 2 -9 -4 -23 -13 -30 -14 -11
-14 -11 4 -6 20 6 20 5 1 -10 -11 -9 -16 -16 -10 -16 5 0 2 -5 -6 -10 -13 -9
-13 -10 0 -10 12 0 13 -2 1 -9 -8 -5 -14 -22 -15 -39 0 -17 -5 -30 -11 -29 -5
1 -9 -6 -7 -17 2 -10 -1 -15 -7 -12 -6 4 -8 -2 -6 -14 2 -11 -1 -20 -7 -20 -6
0 -8 -3 -5 -7 4 -3 1 -13 -6 -21 -10 -13 -9 -14 1 -8 11 6 11 4 3 -13 -27 -52
-31 -61 -31 -66 0 -4 6 -3 13 1 8 6 8 3 -1 -9 -8 -9 -10 -22 -6 -28 4 -8 3 -9
-4 -5 -7 4 -13 4 -13 -1 -1 -4 -3 -19 -6 -33 -2 -14 -4 -33 -4 -42 0 -10 -4
-18 -9 -18 -4 0 -7 -15 -6 -34 1 -19 -3 -32 -8 -29 -5 3 -7 -6 -4 -20 3 -15 1
-24 -3 -21 -5 3 -9 -13 -9 -36 0 -23 -4 -39 -8 -36 -5 3 -9 -1 -9 -9 0 -8 5
-11 11 -8 6 4 6 1 -1 -8 -6 -8 -10 -27 -9 -42 2 -15 -1 -30 -6 -33 -6 -4 -5
-10 3 -15 12 -7 12 -9 0 -9 -8 0 -11 -6 -7 -16 3 -8 2 -12 -4 -9 -6 3 -10 1
-10 -4 0 -6 6 -11 13 -11 8 0 7 -4 -3 -10 -13 -8 -13 -10 -1 -10 12 0 12 -3 3
-12 -15 -15 -16 -31 0 -22 7 5 8 3 2 -7 -11 -18 -14 -198 -3 -205 5 -3 4 -14
-1 -25 -8 -14 -7 -19 1 -19 8 0 8 -4 -1 -15 -7 -8 -8 -15 -3 -15 5 0 10 -15
11 -32 4 -47 7 -61 15 -75 4 -6 1 -14 -5 -16 -10 -4 -10 -6 0 -6 6 -1 12 -9
12 -19 0 -10 6 -24 12 -31 10 -11 10 -13 1 -7 -7 4 -13 2 -13 -3 0 -6 5 -11
11 -11 5 0 7 -4 4 -10 -3 -5 -2 -10 4 -10 6 0 8 -6 5 -14 -3 -8 0 -17 5 -21 6
-3 9 -11 6 -16 -4 -5 -2 -9 3 -9 6 0 13 -7 16 -16 6 -15 4 -15 -11 -3 -12 9
-10 4 5 -15 12 -15 19 -33 15 -39 -3 -5 -2 -7 3 -4 6 3 16 -9 24 -26 7 -18 20
-38 27 -45 7 -8 10 -18 7 -24 -4 -7 -2 -8 4 -4 7 4 12 1 12 -8 0 -9 5 -16 10
-16 6 0 10 -7 10 -16 0 -10 6 -14 14 -11 10 4 13 0 11 -14 -2 -11 0 -17 4 -14
5 3 11 -2 15 -10 3 -8 16 -20 30 -26 13 -6 27 -20 29 -30 3 -11 12 -19 21 -19
9 0 16 -4 16 -10 0 -5 6 -10 13 -10 7 0 20 -9 30 -20 10 -12 22 -18 28 -15 5
4 8 1 7 -7 -2 -7 3 -12 10 -10 7 1 15 -4 18 -12 3 -8 13 -12 25 -9 14 4 18 1
13 -10 -3 -9 0 -15 8 -14 32 1 49 -4 43 -13 -3 -5 0 -7 8 -5 7 3 27 -1 43 -10
16 -8 39 -15 52 -15 12 0 22 -5 22 -10 0 -6 3 -9 8 -9 4 1 9 0 12 -1 19 -7 48
-5 44 4 -3 6 2 2 11 -9 17 -21 21 -21 44 -2 11 9 13 9 8 1 -4 -7 0 -15 9 -18
8 -3 12 -2 9 4 -3 6 -1 10 4 10 6 0 11 -5 11 -11 0 -8 6 -7 17 2 14 12 16 12
8 0 -6 -11 -2 -13 21 -9 16 3 38 2 49 -2 11 -4 34 -4 52 1 18 4 36 3 39 -2 3
-5 10 -6 16 -3 15 10 82 9 98 -1 9 -6 11 -4 5 5 -6 9 -4 12 6 8 8 -3 23 -2 34
2 11 4 26 3 32 -2 9 -7 13 -7 13 0 0 6 11 9 25 7 14 -1 28 2 31 6 3 5 14 4 26
-2 16 -9 19 -8 13 2 -6 9 -3 11 8 6 10 -4 17 -1 17 6 0 8 4 6 10 -3 7 -12 10
-12 10 -1 0 7 6 11 15 8 8 -4 17 -2 20 3 4 6 14 6 27 -1 13 -7 18 -7 14 -1 -3
6 -2 13 3 16 5 4 13 1 16 -4 5 -8 14 -5 28 7 14 12 18 13 12 3 -8 -13 -6 -13
8 -1 9 7 24 11 32 7 11 -4 14 -2 9 6 -5 8 -2 9 9 5 9 -3 19 -2 22 4 4 5 11 7
16 4 5 -4 9 -1 9 5 0 8 6 8 20 0 16 -9 19 -8 13 6 -5 14 -3 15 15 5 20 -11 26
-8 24 10 -1 3 13 6 31 7 17 0 33 6 35 11 2 6 8 11 13 11 6 0 7 -6 3 -12 -4 -7
3 -4 16 7 15 13 21 15 16 5 -5 -9 -2 -8 7 2 8 10 16 15 19 13 3 -3 25 3 49 13
24 11 52 18 62 16 9 -1 15 1 12 6 -6 10 24 22 36 14 5 -3 9 0 9 6 0 6 5 8 10
5 6 -3 10 0 10 7 0 9 3 9 10 -2 8 -13 10 -12 10 3 0 9 3 16 8 16 25 -4 52 2
47 12 -4 6 -1 9 6 8 8 -1 28 4 44 11 17 7 33 13 38 12 4 -1 7 3 7 9 0 5 4 8 9
4 5 -3 12 -1 16 5 4 6 11 8 16 5 5 -4 9 -1 9 4 0 6 9 11 21 11 11 0 18 4 14 9
-3 6 4 8 15 6 11 -2 20 -1 20 3 0 9 49 32 67 32 8 0 16 6 19 14 3 8 11 13 18
10 7 -3 24 6 37 20 17 18 27 22 36 14 9 -7 13 -7 13 0 0 5 12 17 26 27 16 10
23 12 18 4 -4 -7 7 -3 24 10 18 12 32 20 32 16 0 -3 10 3 22 14 11 11 25 18
30 15 4 -3 8 0 8 5 0 6 6 11 14 11 8 0 22 8 32 18 10 9 20 17 23 16 14 -2 41
9 41 17 0 5 7 9 15 9 8 0 15 5 15 11 0 5 4 8 9 4 6 -3 14 3 20 12 7 13 10 14
11 4 0 -9 7 -6 20 9 11 13 23 20 26 17 4 -4 15 5 26 18 11 14 28 25 38 25 11
0 29 10 41 22 12 13 18 16 14 8 -8 -13 -7 -13 11 0 10 8 25 21 32 27 14 13 27
17 49 14 8 -1 10 5 6 15 -4 11 -3 15 5 10 6 -3 15 2 21 11 5 10 13 15 16 11 7
-7 17 0 55 34 10 9 21 14 24 10 3 -3 6 0 6 7 0 7 4 10 9 7 5 -3 12 1 15 9 3 8
9 14 13 13 4 -2 18 7 31 20 12 12 28 20 34 16 7 -4 8 -3 4 4 -4 7 -2 12 4 12
6 0 8 5 5 10 -3 6 -1 10 4 10 6 0 11 9 11 19 0 11 6 22 13 24 6 3 8 6 2 6 -5
1 -9 23 -8 51 0 28 -3 47 -8 44 -5 -3 -9 0 -9 6 0 17 -53 65 -68 62 -8 -2 -11
1 -7 7 3 7 -3 11 -17 12 -13 0 -33 2 -45 5 -14 2 -23 -1 -23 -9 0 -8 -4 -7
-10 3 -7 12 -10 12 -10 1 0 -7 -6 -11 -15 -7 -8 3 -14 0 -12 -6 1 -7 -4 -13
-10 -14 -7 -1 -17 -2 -21 -3 -5 0 -23 -15 -40 -32 -21 -20 -30 -25 -25 -14 3
10 -7 4 -25 -15 -19 -19 -32 -27 -32 -19 -1 9 -5 7 -13 -6 -7 -11 -19 -21 -27
-23 -8 -2 -18 -9 -22 -15 -4 -7 -8 -8 -8 -3 0 5 -8 0 -18 -12 -15 -17 -21 -19
-32 -9 -7 7 -11 8 -8 2 3 -5 -4 -19 -15 -30 -11 -11 -16 -13 -12 -5 7 12 6 13
-7 3 -8 -7 -19 -9 -23 -5 -5 4 -5 2 -2 -4 6 -11 -19 -29 -35 -26 -4 1 -12 -7
-18 -18 -6 -11 -15 -18 -20 -15 -4 3 -16 -2 -24 -11 -9 -8 -16 -13 -16 -9 0 4
-7 -1 -16 -9 -8 -9 -20 -14 -25 -11 -5 4 -9 2 -9 -4 0 -6 -7 -7 -17 -4 -10 4
-14 2 -10 -4 5 -8 -61 -48 -72 -43 -2 1 -7 -4 -12 -11 -4 -7 -15 -14 -25 -15
-9 -2 -20 -8 -24 -14 -4 -6 -16 -13 -26 -14 -10 -2 -18 -9 -17 -14 2 -6 -4 -9
-12 -6 -8 4 -15 1 -15 -6 0 -9 -4 -9 -17 1 -10 9 -14 9 -10 2 8 -13 -26 -37
-37 -26 -3 3 -6 1 -6 -6 0 -7 -4 -9 -10 -6 -5 3 -10 2 -10 -2 0 -5 -18 -16
-40 -26 -27 -11 -38 -21 -34 -30 5 -8 2 -7 -9 2 -11 8 -17 9 -17 3 0 -7 -7 -9
-17 -5 -11 4 -14 3 -9 -5 4 -7 2 -13 -3 -13 -26 -3 -30 -4 -37 -12 -4 -4 -16
-7 -27 -7 -14 0 -17 -5 -13 -16 5 -14 4 -15 -9 -4 -11 9 -15 9 -15 1 0 -7 -4
-9 -10 -6 -5 3 -10 1 -10 -5 0 -6 -4 -8 -10 -5 -5 3 -10 1 -10 -6 0 -8 -5 -7
-17 2 -12 10 -14 10 -9 1 4 -7 0 -14 -11 -18 -10 -3 -26 -10 -37 -15 -14 -8
-17 -7 -11 3 4 7 -3 2 -15 -12 -12 -14 -18 -18 -14 -10 6 12 5 13 -8 3 -8 -7
-18 -10 -21 -6 -4 3 -7 1 -7 -5 0 -6 -7 -9 -15 -6 -8 4 -15 1 -15 -6 0 -6 -6
-10 -12 -7 -7 2 -19 -3 -25 -12 -10 -13 -14 -14 -21 -3 -7 11 -10 10 -16 -3
-3 -9 -10 -13 -16 -10 -5 3 -10 2 -10 -4 0 -6 -6 -8 -13 -5 -8 3 -20 -2 -27
-12 -13 -15 -15 -14 -21 3 -7 16 -8 16 -8 1 -1 -13 -9 -18 -31 -18 -16 0 -30
-4 -30 -10 0 -5 -10 -10 -22 -10 -13 0 -30 -4 -38 -10 -9 -6 -20 -5 -29 3 -10
8 -13 8 -8 1 4 -7 -1 -18 -10 -25 -12 -10 -14 -10 -9 -1 4 6 3 12 -3 12 -5 0
-12 -4 -15 -9 -3 -5 -23 -8 -45 -8 -22 0 -46 -5 -55 -12 -8 -7 -20 -10 -26 -6
-5 3 -10 2 -10 -2 0 -5 -12 -8 -27 -8 -16 1 -34 -3 -40 -8 -7 -5 -20 -7 -28
-3 -8 3 -15 1 -15 -5 0 -6 -8 -5 -21 2 -17 9 -20 8 -14 -2 6 -9 3 -11 -8 -6
-9 3 -19 2 -22 -3 -4 -6 -11 -10 -16 -10 -6 0 -7 5 -3 11 4 8 1 8 -12 2 -23
-12 -64 -11 -83 1 -10 6 -12 5 -7 -2 5 -9 -16 -11 -76 -8 -46 2 -83 4 -83 6 0
1 -8 3 -18 5 -9 2 -15 0 -12 -5 3 -4 -4 -6 -15 -3 -11 3 -20 10 -20 17 0 6 -5
4 -10 -4 -5 -8 -10 -10 -10 -3 0 6 -9 9 -22 5 -16 -4 -19 -2 -13 9 7 11 5 11
-10 -1 -13 -10 -16 -11 -11 -2 5 9 3 13 -5 11 -29 -3 -40 1 -33 14 5 8 2 8 -9
-2 -15 -12 -21 -9 -18 11 0 4 -6 5 -15 1 -8 -3 -21 3 -29 13 -11 15 -15 16
-15 4 -1 -12 -3 -12 -14 2 -7 10 -16 15 -19 11 -4 -3 -7 -2 -7 4 0 13 -49 46
-67 46 -12 0 -17 11 -14 30 0 4 -5 7 -13 7 -8 0 -18 9 -21 20 -4 11 -11 18
-16 15 -5 -4 -9 1 -9 9 0 9 -5 16 -11 16 -5 0 -8 4 -5 9 4 5 2 11 -3 13 -5 1
-11 10 -13 18 -2 8 -12 21 -23 28 -19 13 -19 13 -1 7 19 -6 19 -5 3 13 -9 10
-14 22 -10 25 3 4 1 7 -5 7 -7 0 -12 8 -12 18 0 10 -6 24 -12 31 -11 11 -10
12 0 6 10 -5 11 -3 4 11 -19 39 -30 84 -20 84 5 0 2 7 -6 16 -18 17 -21 28 -6
19 14 -9 13 8 -2 23 -9 9 -9 12 1 12 7 0 9 5 5 12 -9 14 -12 208 -3 208 3 0 4
11 2 24 -3 13 0 27 6 30 17 11 13 26 -6 26 -15 0 -15 1 1 13 12 9 16 21 12 40
-2 15 -1 27 3 27 5 0 7 11 6 25 -2 14 2 25 8 25 5 0 7 3 4 7 -4 3 -1 13 6 21
9 13 9 14 0 8 -7 -4 -13 -3 -13 3 0 5 5 13 10 16 8 5 7 11 -1 21 -10 12 -10
14 1 12 12 -3 18 16 22 70 1 12 6 22 11 22 5 0 7 9 4 21 -3 12 0 22 9 26 8 3
12 14 10 28 -2 13 1 31 8 41 7 11 12 31 12 46 -1 14 3 26 9 25 9 -2 11 4 14
46 0 10 5 16 10 12 6 -3 8 6 5 21 -3 16 -1 23 6 19 6 -4 10 6 10 25 0 17 6 33
14 36 8 3 13 14 11 25 -2 10 1 19 7 19 5 0 7 7 4 16 -3 8 -2 12 4 9 6 -3 10 3
10 14 0 11 5 23 10 26 6 4 8 11 5 16 -4 5 -2 9 4 9 5 0 8 11 6 25 -1 14 0 24
2 21 9 -9 30 19 25 33 -3 9 -1 12 6 7 8 -4 10 -2 6 7 -3 8 0 18 6 22 9 6 9 10
-1 16 -11 7 -11 9 1 9 8 0 21 9 28 21 8 12 9 18 3 14 -6 -3 -11 -1 -11 4 0 6
5 11 10 11 6 0 10 7 10 16 0 9 5 12 12 8 7 -5 8 -3 3 5 -4 7 2 22 16 37 12 13
24 32 24 42 4 30 10 46 23 60 6 7 12 20 12 28 0 8 4 14 9 14 5 0 12 11 15 25
4 14 10 23 15 21 5 -3 9 0 8 7 -1 32 4 48 13 42 5 -3 12 7 16 22 4 15 11 31
16 34 5 3 11 15 12 25 2 10 8 18 14 17 6 -2 9 6 7 17 -2 12 0 18 6 15 5 -4 10
-1 10 4 1 6 2 15 3 21 0 5 10 16 21 25 11 9 14 14 8 10 -9 -4 -11 -1 -7 9 3 9
14 16 23 16 14 0 14 2 1 10 -13 9 -7 14 12 11 4 0 5 6 2 14 -4 8 -1 15 5 15 6
0 11 5 11 11 0 6 9 24 21 40 11 16 17 34 14 39 -4 6 -1 9 6 8 7 -2 14 4 14 12
0 8 7 14 14 12 7 -1 10 2 6 8 -3 5 -1 10 4 10 6 0 11 5 11 11 0 5 -6 7 -12 4
-7 -4 -4 1 7 10 11 9 19 21 18 26 -2 5 0 9 5 9 4 0 13 14 20 30 8 17 18 27 25
23 6 -4 8 0 4 10 -4 10 1 22 13 30 11 8 17 17 13 20 -3 4 -1 7 5 7 7 0 11 6 9
13 -1 7 6 11 18 9 15 -2 16 0 7 6 -11 8 -11 12 0 23 8 8 16 18 19 24 2 5 9 9
14 7 6 -2 7 0 3 3 -11 11 11 47 24 39 7 -4 8 -3 4 4 -4 6 2 20 13 31 11 11 17
22 14 25 -4 3 0 6 7 6 7 0 10 3 7 7 -4 3 4 16 18 28 13 13 21 26 18 29 -3 3 6
15 20 27 15 11 27 27 27 35 0 8 5 14 11 14 5 0 8 4 5 9 -3 5 2 15 11 22 14 12
16 12 9 -1 -4 -8 0 -6 8 4 14 18 21 15 17 -6 0 -5 6 -8 14 -8 14 0 19 -12 16
-32 0 -5 4 -8 10 -8 5 0 7 -4 4 -10 -4 -6 1 -7 11 -3 13 5 16 3 11 -10 -3 -9
-2 -17 4 -17 11 0 36 -21 35 -30 0 -6 32 -46 58 -71 11 -11 17 -19 14 -19 -4
0 10 -18 30 -39 20 -21 48 -54 62 -71 14 -18 35 -42 47 -53 12 -11 19 -25 16
-31 -3 -6 -3 -8 2 -4 9 8 35 -15 35 -32 0 -6 4 -8 10 -5 5 3 10 -1 10 -9 0 -9
7 -16 16 -16 8 0 13 -4 9 -9 -3 -6 4 -15 15 -21 11 -6 20 -15 20 -21 0 -15 26
-39 34 -32 3 4 6 -3 6 -15 0 -12 3 -21 8 -20 13 4 70 -61 58 -66 -6 -2 -1 -5
12 -5 12 -1 22 -7 22 -14 0 -7 9 -19 19 -27 11 -7 18 -17 15 -22 -3 -4 4 -8
15 -8 12 0 20 -3 19 -7 -3 -15 14 -43 23 -37 5 3 9 -2 9 -11 0 -9 5 -13 10
-10 9 6 14 -8 11 -27 0 -5 2 -7 7 -7 20 3 32 -2 32 -16 0 -7 8 -19 18 -24 9
-6 13 -11 7 -11 -5 0 1 -6 15 -13 13 -7 30 -23 36 -35 6 -13 15 -24 20 -25 5
-1 8 -5 7 -9 -3 -8 12 -12 29 -9 5 0 7 -5 5 -12 -1 -6 4 -11 12 -9 9 2 12 -4
8 -18 -3 -11 -1 -17 4 -14 11 6 39 -19 39 -36 0 -6 4 -9 8 -6 10 6 43 -30 35
-38 -4 -3 3 -6 15 -6 12 0 21 -3 21 -7 -3 -17 1 -33 9 -32 20 3 32 -2 27 -12
-4 -6 2 -13 13 -16 13 -3 19 -10 15 -19 -3 -9 0 -14 8 -12 8 2 13 -3 12 -9 -2
-7 0 -12 5 -12 19 3 33 -2 27 -11 -3 -5 -3 -10 2 -10 14 -1 83 -67 76 -74 -3
-3 1 -6 11 -6 9 0 15 -4 12 -9 -3 -5 4 -11 15 -14 12 -3 18 -10 14 -16 -4 -7
1 -8 12 -4 10 3 15 3 11 -2 -8 -9 15 -35 32 -35 6 0 9 -3 7 -7 -6 -10 19 -34
27 -26 3 4 6 0 6 -7 0 -7 3 -10 7 -7 3 4 11 -3 18 -16 6 -12 17 -21 23 -20 7
2 12 -4 12 -12 0 -13 12 -19 32 -16 4 0 5 -6 2 -14 -4 -9 -1 -15 7 -15 8 0 31
-19 51 -41 21 -23 38 -38 38 -33 0 5 11 -4 25 -19 14 -15 30 -27 36 -27 6 0 7
-4 4 -10 -3 -5 1 -10 9 -10 9 0 16 -5 16 -11 0 -5 5 -7 12 -3 6 4 8 3 5 -3 -9
-14 27 -43 53 -43 5 0 9 -4 7 -8 -3 -12 74 -83 83 -77 4 3 11 -2 14 -11 3 -9
11 -12 18 -8 7 4 10 4 6 -1 -9 -10 31 -47 43 -39 5 3 9 -5 9 -18 0 -18 2 -20
10 -8 9 13 10 13 11 0 1 -8 1 -18 1 -21 -1 -4 4 -6 11 -5 7 0 12 -3 12 -7 0
-12 48 -36 59 -30 5 4 6 1 2 -6 -5 -8 0 -14 13 -18 11 -3 18 -9 15 -14 -3 -5
2 -9 10 -9 9 0 16 -4 16 -10 0 -5 5 -10 11 -10 7 0 19 -8 28 -18 9 -9 28 -23
43 -31 15 -8 25 -18 22 -23 -3 -4 0 -8 6 -8 6 0 18 -7 27 -15 8 -8 18 -13 23
-10 4 3 10 -5 13 -16 3 -12 10 -18 16 -14 6 3 11 2 11 -4 0 -6 14 -18 31 -26
38 -20 70 -51 61 -60 -4 -4 -2 -5 3 -4 12 3 75 -33 75 -43 0 -5 7 -8 15 -8 8
0 15 -4 15 -10 0 -5 3 -9 8 -7 7 2 23 -9 63 -46 22 -19 34 -23 23 -5 -4 7 -3
8 4 4 7 -4 12 -14 12 -22 0 -8 4 -12 10 -9 6 3 10 1 10 -4 0 -6 7 -11 15 -11
8 0 15 -7 15 -16 0 -13 3 -14 14 -5 11 10 16 8 21 -8 3 -12 13 -21 21 -21 8 0
14 -5 14 -11 0 -5 4 -8 8 -5 5 3 20 -6 35 -20 14 -13 33 -24 40 -24 8 0 20 -7
27 -15 7 -8 16 -12 21 -9 5 3 8 1 7 -4 -2 -6 1 -10 5 -10 5 -1 17 -10 26 -21
10 -11 21 -18 25 -14 3 3 6 0 6 -8 0 -11 2 -11 10 1 8 13 10 12 10 -2 0 -10 4
-18 9 -18 5 0 23 -11 39 -25 16 -13 32 -22 35 -19 3 4 13 -1 22 -10 9 -9 21
-13 27 -10 6 4 8 3 5 -3 -3 -5 9 -16 28 -23 19 -7 31 -18 28 -23 -4 -6 0 -8
10 -4 9 3 18 0 21 -9 3 -8 12 -14 21 -14 8 0 15 -5 15 -10 0 -6 3 -9 8 -8 14
4 52 -14 47 -22 -3 -4 3 -7 13 -6 9 0 16 -5 14 -12 -2 -10 4 -11 19 -7 15 5
19 4 15 -4 -5 -7 1 -11 14 -11 12 0 19 -4 16 -8 -3 -5 1 -9 9 -10 8 -1 22 -3
30 -4 8 -1 12 -5 9 -10 -3 -4 2 -8 11 -8 10 0 13 -5 9 -12 -4 -6 -3 -8 4 -4 6
3 13 2 17 -4 4 -6 11 -8 16 -5 5 4 9 1 9 -5 0 -6 4 -9 9 -6 5 3 14 -1 21 -9 7
-8 21 -15 31 -15 11 0 19 -4 19 -10 0 -5 9 -10 20 -10 11 0 20 -4 20 -10 0 -5
7 -10 15 -10 8 0 15 -5 15 -11 0 -5 5 -7 11 -4 6 4 17 -1 25 -11 9 -11 13 -13
9 -7 -3 7 -1 13 4 13 6 0 11 -4 11 -10 0 -5 6 -10 14 -10 7 0 25 -9 39 -20 14
-11 35 -20 47 -20 12 0 28 -7 37 -15 8 -8 19 -13 24 -10 5 4 9 2 9 -3 0 -6 7
-13 16 -16 10 -4 13 -2 9 7 -4 6 -1 5 7 -4 7 -9 19 -14 27 -11 8 3 11 0 7 -6
-4 -7 1 -9 14 -7 11 2 20 -1 20 -7 0 -6 9 -8 20 -5 10 3 18 0 17 -5 -1 -6 7
-12 17 -14 10 -1 22 -6 25 -11 3 -4 17 -9 31 -11 13 -1 27 -6 30 -10 3 -4 16
-9 30 -11 14 -1 28 -8 32 -15 4 -6 8 -7 8 -2 0 5 6 3 13 -3 8 -6 17 -8 20 -4
4 3 7 2 7 -3 0 -5 12 -10 26 -11 15 0 30 -6 34 -13 6 -9 9 -9 12 1 4 12 7 12
21 0 9 -7 14 -18 11 -23 -4 -7 0 -7 12 0 15 8 24 7 38 -6 11 -9 16 -12 13 -5
-8 13 30 6 38 -8 3 -4 13 -5 22 -2 10 4 14 2 10 -4 -5 -7 4 -11 25 -9 18 1 41
-5 50 -13 15 -12 18 -12 18 0 1 10 4 10 14 -3 7 -10 16 -15 19 -11 4 3 13 0
22 -7 13 -11 15 -10 9 6 -5 18 -5 18 9 2 11 -14 16 -15 27 -5 8 8 11 8 7 1 -9
-16 28 -25 42 -11 8 8 11 8 11 -1 0 -7 13 -12 30 -12 17 0 30 -5 30 -12 0 -10
2 -10 9 0 10 16 9 16 44 3 20 -8 27 -7 27 2 1 7 6 5 14 -5 14 -19 32 -25 21
-8 -4 6 -1 9 7 8 7 -2 16 -10 20 -18 5 -12 7 -11 7 3 1 10 6 15 12 12 16 -11
70 -12 76 -2 3 4 14 1 24 -9 11 -10 19 -12 19 -6 0 7 5 12 11 12 5 0 7 -6 3
-12 -6 -10 -4 -10 8 0 8 7 26 11 39 8 13 -2 32 1 43 6 12 7 16 7 12 0 -4 -6 2
-10 13 -9 11 0 17 5 15 9 -3 4 9 6 26 4 17 -2 33 1 36 6 3 5 12 4 20 -3 9 -7
14 -8 14 -1 0 6 11 9 25 7 18 -1 22 1 16 9 -6 8 -2 11 15 11 13 0 24 -4 24
-10 0 -5 7 -1 15 9 11 14 15 16 15 5 0 -12 2 -12 9 0 5 8 16 11 25 8 9 -4 20
1 25 11 6 9 11 14 11 9 0 -4 13 -1 29 7 16 9 31 12 35 9 3 -4 6 -1 6 6 0 8 6
11 16 7 10 -4 13 -2 8 6 -5 8 -2 9 9 5 11 -4 17 -1 17 8 0 8 3 14 8 13 14 -3
66 23 82 42 10 11 22 20 28 20 6 0 21 14 34 30 12 17 28 30 35 30 8 0 12 3 10
7 -7 11 19 33 29 25 4 -4 4 -2 0 5 -3 6 2 18 12 25 18 13 37 46 34 60 -1 4 6
4 15 1 10 -4 14 -2 10 4 -4 6 -1 18 7 25 14 15 31 58 28 71 -1 5 2 6 8 2 5 -3
10 1 10 10 0 9 4 14 9 11 4 -3 6 6 3 19 -2 14 0 25 6 25 5 0 13 7 16 16 3 8 2
12 -3 9 -5 -3 -3 9 6 26 8 17 17 44 18 60 1 15 7 34 13 42 6 7 9 22 8 32 -2
11 1 26 7 32 6 9 6 13 -2 13 -8 0 -7 6 3 16 18 17 21 28 6 19 -5 -3 -10 -1
-10 4 0 6 5 11 11 11 8 0 7 6 -2 17 -8 9 -9 14 -4 11 7 -5 11 26 10 90 0 53 4
103 9 109 5 8 4 13 -3 13 -8 0 -10 11 -7 30 2 16 0 33 -6 36 -6 4 -5 10 3 15
9 6 10 12 4 17 -5 4 -10 18 -10 32 0 14 -4 31 -10 39 -8 12 -7 13 4 6 11 -6
12 -5 5 6 -4 8 -9 31 -10 53 -1 21 -7 42 -15 47 -11 7 -11 9 -1 9 9 0 10 6 4
18 -4 9 -8 24 -7 32 0 8 -6 21 -15 28 -8 8 -9 11 -2 7 7 -4 12 0 12 9 0 9 -4
16 -9 16 -6 0 -8 9 -6 20 2 11 -2 20 -8 20 -7 0 -6 4 3 10 13 8 13 10 -2 10
-15 0 -16 4 -8 26 7 16 7 23 0 19 -14 -9 -12 18 2 35 10 11 9 11 -6 0 -18 -14
-19 -13 -14 8 4 14 2 20 -5 15 -6 -4 -8 0 -4 10 3 9 2 19 -4 23 -6 3 -8 12 -5
20 3 8 1 14 -4 14 -5 0 -7 7 -4 15 4 8 1 15 -7 15 -7 0 -9 3 -6 7 4 3 2 12 -4
20 -9 9 -8 13 0 13 8 0 8 5 -1 19 -7 11 -15 18 -19 16 -3 -3 -5 7 -3 20 1 14
-3 25 -9 25 -5 0 -7 3 -4 7 4 3 1 13 -6 21 -10 13 -9 14 3 7 13 -8 13 -7 0 9
-8 10 -15 23 -16 30 -5 30 -10 42 -24 54 -13 12 -13 13 0 6 10 -5 9 0 -4 14
-11 12 -16 22 -11 22 4 0 2 7 -5 15 -7 8 -9 15 -5 15 4 0 2 6 -4 13 -6 8 -8
17 -4 20 3 4 1 7 -5 7 -7 0 -12 9 -12 20 0 11 -5 20 -11 20 -5 0 -7 5 -4 10 3
6 2 10 -3 10 -6 0 -8 8 -5 19 3 10 -1 22 -8 26 -8 6 -10 4 -4 -5 5 -8 4 -11
-2 -7 -6 4 -10 20 -9 36 1 17 -1 28 -5 25 -4 -2 -12 3 -19 11 -10 12 -10 15 1
15 10 0 10 3 3 8 -6 4 -14 17 -18 30 -5 13 -12 20 -19 15 -7 -4 -6 1 2 10 12
15 11 17 -3 17 -9 0 -16 8 -16 20 0 11 -3 20 -7 20 -5 0 -13 11 -20 25 -8 19
-8 24 0 19 7 -3 3 2 -7 10 -11 9 -16 16 -10 16 5 0 4 4 -3 8 -6 4 -13 16 -15
27 -1 11 -7 23 -13 27 -5 4 -10 13 -10 20 -1 7 -6 12 -12 11 -7 -2 -10 6 -8
17 2 11 0 20 -5 20 -9 0 -21 30 -17 43 1 5 -6 13 -15 18 -10 6 -18 17 -18 24
0 8 -5 15 -11 15 -5 0 -8 4 -4 9 3 5 -2 16 -10 24 -8 9 -15 21 -15 27 0 6 -5
8 -12 4 -7 -5 -8 -3 -4 5 5 7 2 20 -6 29 -8 9 -20 32 -28 49 -7 19 -17 30 -23
26 -6 -4 -8 0 -4 10 3 10 2 17 -3 17 -5 0 -17 17 -27 38 -9 20 -22 40 -27 44
-6 4 -7 8 -2 8 5 0 -3 12 -18 27 -16 16 -25 34 -23 45 3 10 0 16 -7 15 -6 -1
-10 4 -8 11 1 6 -6 12 -15 13 -10 0 -13 3 -6 6 8 3 5 12 -12 29 -13 13 -31 40
-41 59 -9 19 -20 32 -25 30 -4 -3 -6 4 -4 15 2 13 -1 20 -11 20 -8 0 -12 5 -9
10 3 6 1 10 -5 10 -6 0 -8 5 -5 10 3 6 -1 10 -10 10 -9 0 -13 5 -10 10 3 6 1
10 -5 10 -6 0 -8 5 -5 10 3 6 1 10 -6 10 -7 0 -9 3 -6 6 4 4 -6 18 -21 32 -15
13 -20 21 -12 17 8 -3 2 5 -13 19 -15 14 -22 26 -15 26 7 1 3 6 -10 13 -12 7
-19 16 -16 20 4 4 2 7 -5 7 -7 0 -10 4 -7 9 3 5 -1 11 -9 15 -8 3 -15 12 -15
20 0 8 -5 18 -12 22 -7 5 -8 3 -3 -6 5 -9 4 -11 -4 -6 -9 6 -9 11 0 22 10 12
9 13 -6 7 -14 -5 -17 -3 -12 10 4 12 1 17 -10 17 -9 0 -14 3 -10 6 8 9 -16 33
-27 26 -5 -3 -6 0 -2 6 3 6 2 13 -4 17 -6 4 -8 11 -4 16 3 5 0 8 -8 7 -7 -2
-12 3 -11 10 2 6 -2 12 -7 12 -13 0 -1 50 16 67 7 7 16 22 19 33 3 11 9 19 13
17 4 -1 8 1 9 6 5 16 29 35 38 29 6 -3 3 3 -5 13 -9 11 -10 16 -3 11 8 -4 17
2 25 18 6 14 16 26 21 26 6 0 8 3 4 6 -5 5 10 27 41 59 6 8 12 18 12 24 0 6
10 15 21 22 17 9 19 13 8 20 -11 7 -10 9 3 9 10 0 17 3 16 8 -3 12 43 82 54
82 6 0 7 7 4 16 -3 8 -2 12 4 9 6 -3 10 1 10 9 0 9 5 16 10 16 6 0 10 7 10 15
0 8 4 15 9 15 5 0 11 9 14 21 4 13 10 18 18 13 8 -4 10 -3 5 4 -9 14 18 55 28
44 5 -4 7 0 6 8 -3 22 11 60 22 60 5 0 6 -5 2 -12 -5 -7 -3 -8 5 -4 7 5 10 11
7 14 -4 3 1 16 9 29 9 13 13 29 9 36 -4 7 -3 9 1 4 9 -8 67 72 60 84 -3 4 2 9
10 13 8 3 15 14 15 24 0 10 9 28 20 40 11 12 20 28 20 37 0 9 7 18 15 21 8 4
12 10 9 15 -3 5 0 9 5 9 6 0 11 12 11 26 0 14 4 22 10 19 5 -3 12 6 16 20 4
15 11 22 18 18 6 -4 5 1 -3 11 -12 14 -12 17 0 14 8 -2 15 7 17 20 2 13 8 20
14 16 7 -5 9 -1 5 9 -3 10 -2 17 4 17 6 0 7 5 4 10 -3 6 0 13 9 16 9 3 12 12
9 21 -5 12 -3 14 7 8 10 -6 12 -2 8 19 -4 19 -2 24 6 17 8 -7 12 -3 13 12 1
12 7 23 13 25 5 2 10 12 10 22 0 10 7 26 16 34 8 9 12 16 8 16 -3 0 -1 6 5 13
6 8 7 18 3 22 -4 5 1 5 10 2 12 -4 15 -2 11 9 -3 8 0 21 7 29 7 8 10 15 6 15
-3 0 3 16 14 35 11 20 20 42 20 50 0 8 5 15 10 15 6 0 10 9 10 20 0 11 5 20
11 20 5 0 8 4 4 9 -3 5 1 15 8 23 7 7 12 23 11 35 -1 12 2 20 6 18 10 -6 22
24 14 36 -3 5 0 9 6 9 6 0 8 5 5 10 -3 6 -1 10 5 10 6 0 8 5 5 10 -3 6 -2 10
3 10 5 0 9 6 10 13 1 27 12 61 20 66 5 3 8 14 6 24 -1 9 1 17 4 17 10 0 33 80
27 91 -4 5 0 9 7 9 7 0 14 10 14 23 2 19 9 52 14 67 1 3 2 8 1 13 0 4 3 7 7 7
5 0 9 6 9 13 0 6 3 23 6 37 3 14 8 36 11 49 3 12 10 29 15 35 7 9 7 16 -1 24
-9 9 -9 12 -1 12 7 0 10 9 8 20 -2 11 -1 20 3 20 4 0 7 15 7 33 0 17 3 37 6
42 4 6 10 25 14 44 5 25 4 32 -5 26 -7 -4 -4 4 5 19 10 15 13 26 6 26 -5 0 -8
7 -5 15 4 8 10 12 15 9 14 -8 10 3 -7 20 -14 15 -14 16 3 16 15 0 16 2 3 10
-8 5 -10 10 -5 10 13 0 14 288 2 308 -5 7 -3 12 5 12 8 1 6 6 -6 15 -11 8 -15
15 -10 15 5 0 10 9 10 20 0 11 -4 20 -9 20 -5 0 -7 6 -4 13 2 6 -2 27 -9 45
-10 24 -10 31 -1 25 7 -4 4 6 -7 21 -10 16 -13 25 -7 22 7 -5 9 -1 5 8 -3 9
-11 16 -16 16 -6 0 -8 6 -5 14 3 7 -1 23 -9 35 -8 11 -12 21 -8 21 3 0 1 7 -6
15 -7 8 -9 15 -6 15 4 0 0 7 -9 16 -9 9 -14 21 -12 27 1 5 -8 21 -21 34 -12
13 -20 28 -17 33 3 6 1 10 -4 10 -6 0 -11 5 -11 11 0 16 -26 39 -35 31 -5 -4
-5 -2 -1 5 4 7 -20 38 -61 77 -96 92 -111 105 -117 98 -3 -3 -6 0 -6 7 0 7 -4
9 -10 6 -5 -3 -20 5 -33 17 -13 13 -28 23 -34 21 -5 -2 -20 6 -33 17 -27 23
-34 25 -25 8 4 -7 0 -6 -7 4 -11 12 -18 14 -32 6 -12 -7 -17 -7 -13 0 4 5 -7
12 -24 16 -17 3 -28 10 -24 16 4 6 -1 7 -10 3 -10 -3 -21 0 -26 8 -6 11 -9 11
-9 1 0 -9 -5 -10 -17 -4 -10 5 -24 7 -32 4 -9 -3 -11 0 -7 7 5 8 0 10 -18 7
-14 -3 -26 0 -26 5 0 6 -8 6 -20 -1 -11 -6 -20 -7 -20 -2 0 5 -13 8 -30 7 -16
-1 -30 2 -30 7 0 4 -5 8 -11 8 -5 0 -7 -5 -3 -11 4 -8 1 -8 -12 -2 -23 11 -34
11 -53 -1 -10 -6 -12 -5 -7 2 5 9 -13 10 -66 6 -40 -3 -82 -6 -93 -5 -10 0
-26 -5 -34 -12 -12 -10 -14 -9 -8 7 7 16 5 17 -9 6 -13 -11 -17 -11 -24 -1 -6
10 -9 10 -12 1 -2 -7 -23 -13 -46 -14 -23 0 -42 -5 -42 -11 0 -5 -8 -1 -17 10
-14 18 -15 18 -9 1 5 -13 2 -17 -9 -13 -8 4 -16 3 -19 -1 -2 -4 -20 -7 -40 -6
-23 1 -34 -2 -29 -9 4 -6 -2 -8 -15 -5 -12 4 -24 2 -27 -2 -3 -5 -14 -7 -25
-5 -11 2 -20 0 -20 -4 0 -5 -8 -8 -17 -8 -37 0 -44 -3 -37 -15 5 -9 2 -9 -9 1
-13 11 -17 11 -17 1 0 -8 -3 -10 -7 -7 -3 4 -13 1 -21 -6 -13 -10 -14 -9 -7 3
7 12 6 13 -7 3 -8 -7 -18 -10 -21 -6 -4 3 -7 1 -7 -4 0 -6 -11 -10 -25 -9 -13
2 -22 -1 -19 -5 3 -5 -4 -9 -16 -9 -14 0 -19 -4 -14 -12 5 -10 4 -10 -5 -2
-14 13 -54 7 -46 -7 3 -4 -7 -7 -22 -6 -16 1 -27 -3 -26 -9 1 -7 -10 -10 -27
-9 -17 1 -30 -2 -30 -7 0 -5 -5 -6 -12 -2 -8 5 -9 2 -5 -9 5 -14 2 -15 -18 -7
-18 7 -24 6 -22 -2 1 -6 -11 -12 -28 -13 -19 0 -29 -5 -27 -14 2 -8 -3 -11
-11 -8 -8 3 -20 0 -27 -6 -10 -9 -11 -9 -6 3 6 12 5 12 -6 -1 -7 -9 -23 -15
-36 -14 -16 1 -21 -3 -17 -12 3 -9 0 -13 -7 -10 -7 2 -19 -3 -26 -12 -11 -14
-11 -14 -6 4 5 19 5 19 -9 2 -9 -11 -21 -15 -32 -10 -12 4 -16 3 -12 -4 7 -11
-28 -27 -52 -23 -7 1 -10 -3 -6 -9 3 -6 1 -11 -4 -11 -20 0 -26 -2 -37 -11 -6
-5 -18 -7 -27 -3 -8 3 -18 1 -22 -5 -3 -7 0 -8 9 -5 9 3 16 3 16 0 0 -13 -45
-24 -52 -12 -5 7 -8 4 -8 -7 0 -10 -4 -16 -9 -12 -6 3 -14 -3 -20 -12 -8 -13
-10 -14 -11 -4 0 11 -4 10 -13 -4 -8 -10 -19 -15 -24 -12 -6 4 -14 0 -17 -9
-3 -9 -13 -14 -20 -11 -8 3 -17 -1 -20 -9 -3 -8 -15 -14 -26 -14 -11 0 -20 -5
-20 -11 0 -5 -4 -7 -10 -4 -5 3 -10 1 -10 -5 0 -6 -4 -9 -9 -6 -5 3 -14 -1
-21 -9 -7 -8 -16 -13 -20 -10 -4 3 -11 -2 -14 -11 -3 -8 -10 -13 -15 -9 -6 3
-14 -3 -20 -12 -8 -14 -11 -15 -11 -3 0 12 -3 11 -11 -3 -6 -9 -14 -15 -20
-12 -5 4 -12 -1 -15 -9 -3 -9 -12 -16 -20 -16 -8 0 -14 -6 -14 -12 0 -9 -3 -8
-10 2 -8 12 -10 12 -16 -3 -3 -9 -11 -17 -16 -17 -6 0 -17 -8 -25 -17 -8 -11
-11 -12 -7 -3 7 13 5 13 -9 1 -9 -7 -17 -10 -17 -6 0 5 -8 -2 -19 -13 -10 -12
-23 -22 -30 -22 -6 0 -11 -5 -11 -11 0 -5 -4 -7 -10 -4 -5 3 -10 1 -10 -5 0
-6 -4 -8 -10 -5 -5 3 -10 -2 -11 -12 0 -13 -2 -14 -6 -4 -4 10 -9 8 -20 -10
-10 -16 -12 -18 -8 -5 6 19 5 19 -13 3 -10 -9 -22 -15 -25 -12 -4 3 -5 2 -2
-1 4 -7 -6 -18 -39 -44 -12 -9 -17 -10 -12 -2 4 6 2 12 -3 12 -6 0 -11 -4 -11
-9 0 -13 -94 -71 -116 -71 -16 0 -17 -2 -4 -10 8 -5 13 -10 10 -11 -33 -6 -42
-9 -55 -22 -8 -9 -24 -19 -35 -22 -11 -3 -20 -11 -20 -16 0 -5 -6 -9 -14 -9
-8 0 -17 -7 -20 -16 -3 -8 -10 -12 -16 -9 -5 3 -10 2 -10 -4 0 -5 -10 -13 -22
-16 -13 -4 -35 -21 -50 -37 -16 -16 -32 -27 -37 -23 -6 3 -15 -4 -21 -15 -6
-11 -15 -20 -21 -20 -6 0 -17 -7 -26 -15 -8 -8 -19 -12 -25 -9 -6 4 -8 2 -5
-3 7 -11 -20 -28 -38 -24 -5 2 -7 -1 -3 -5 12 -11 -52 -53 -70 -47 -13 4 -14
3 -4 -5 10 -7 7 -13 -12 -25 -14 -10 -30 -17 -36 -17 -6 0 -8 -5 -4 -12 5 -8
2 -9 -10 -5 -9 4 -15 3 -13 -1 3 -4 -1 -13 -9 -20 -8 -7 -14 -10 -14 -6 0 4
-12 -6 -26 -22 -15 -16 -23 -22 -19 -14 4 8 -2 4 -13 -9 -12 -15 -24 -21 -32
-16 -8 5 -11 4 -7 -2 6 -9 -26 -43 -41 -43 -4 0 -27 -18 -50 -40 -23 -23 -42
-37 -42 -33 0 4 -5 0 -11 -10 -6 -9 -14 -15 -20 -12 -8 6 -13 -8 -10 -28 1 -5
-3 -6 -8 -3 -13 8 -42 -4 -36 -15 6 -9 -35 -35 -48 -31 -5 1 -7 -1 -4 -5 5 -9
-29 -44 -36 -36 -3 2 -8 -5 -12 -16 -3 -12 -11 -19 -16 -15 -5 3 -25 -11 -44
-30 -19 -20 -39 -36 -45 -36 -6 0 -8 -4 -5 -10 3 -5 -1 -10 -9 -10 -9 0 -16
-4 -16 -10 0 -5 -7 -10 -15 -10 -9 0 -12 -6 -9 -15 4 -9 0 -15 -10 -15 -9 0
-16 -5 -16 -11 0 -5 -4 -7 -10 -4 -5 3 -15 -5 -21 -19 -8 -16 -17 -22 -27 -19
-9 4 -13 2 -9 -4 4 -5 -5 -15 -19 -22 -14 -6 -22 -16 -19 -21 5 -9 1 -11 -20
-10 -11 1 -33 -25 -28 -33 2 -4 -6 -11 -19 -16 -13 -5 -43 -30 -66 -56 -25
-28 -46 -44 -53 -39 -8 4 -9 3 -5 -4 4 -7 2 -12 -4 -12 -6 0 -9 -3 -7 -7 3 -5
-1 -14 -9 -21 -8 -7 -14 -10 -14 -6 0 4 -13 -7 -28 -24 -16 -18 -34 -32 -41
-32 -7 0 -9 -4 -6 -10 3 -5 -2 -10 -11 -10 -10 0 -15 -3 -11 -6 9 -9 -21 -36
-33 -29 -6 3 -7 -1 -4 -9 4 -10 1 -16 -9 -16 -8 0 -21 -8 -28 -17 -13 -17 -13
-17 6 -3 19 14 19 14 6 -2 -7 -10 -19 -18 -27 -18 -16 0 -36 -34 -26 -46 4 -5
-1 -2 -11 5 -15 12 -17 12 -11 -4 5 -12 4 -16 -3 -12 -6 4 -14 0 -17 -9 -3 -8
-11 -12 -17 -8 -7 4 -10 3 -7 -2 7 -11 -58 -75 -67 -66 -3 4 -3 -2 1 -12 5
-13 4 -17 -4 -13 -6 4 -20 -6 -32 -23 -12 -17 -26 -28 -31 -25 -5 4 -6 -2 -2
-11 4 -12 3 -15 -5 -10 -7 4 -12 2 -12 -3 0 -16 -33 -51 -48 -51 -7 0 -11 -3
-9 -7 5 -10 -30 -43 -37 -36 -3 4 -6 1 -6 -5 0 -15 -62 -78 -73 -74 -5 1 -6
-1 -3 -6 3 -5 -10 -24 -29 -43 -19 -19 -35 -41 -35 -49 -1 -11 -3 -12 -7 -2
-3 8 -16 -1 -35 -27 -16 -23 -34 -41 -40 -41 -6 0 -8 -7 -4 -15 3 -8 0 -14 -7
-12 -7 1 -11 -4 -9 -10 1 -7 -4 -13 -12 -13 -8 0 -17 -7 -20 -16 -3 -9 -11
-12 -18 -8 -7 4 -10 4 -6 -1 10 -11 -11 -47 -23 -40 -5 4 -8 3 -7 -2 2 -5 -7
-19 -19 -32 -12 -13 -20 -29 -16 -34 3 -6 1 -7 -6 -3 -6 4 -14 0 -17 -8 -3 -9
-10 -13 -15 -10 -5 3 -9 2 -8 -3 3 -19 -2 -34 -10 -28 -5 3 -13 -4 -16 -16 -4
-13 -12 -18 -21 -15 -9 4 -12 2 -8 -5 3 -6 -2 -18 -12 -28 -11 -10 -28 -30
-39 -46 -11 -16 -37 -46 -58 -68 -20 -21 -35 -43 -31 -48 3 -5 -1 -9 -9 -9 -8
0 -18 -11 -21 -25 -4 -14 -10 -23 -15 -21 -5 3 -17 -4 -27 -17 -19 -21 -19
-21 1 -7 11 8 3 -2 -17 -23 -23 -23 -43 -35 -52 -31 -9 3 -14 10 -11 14 3 4
-2 11 -11 14 -9 4 -14 9 -11 12 3 4 -4 15 -16 26 -12 11 -15 17 -7 13 8 -3 5
2 -7 11 -13 9 -23 23 -23 30 0 8 -4 14 -8 14 -5 0 -15 12 -23 28 -8 15 -22 34
-31 43 -10 9 -15 19 -11 23 3 3 1 6 -6 6 -7 0 -9 5 -6 10 3 6 0 10 -8 10 -10
0 -14 8 -11 23 2 12 1 16 -2 9 -8 -17 -33 14 -34 41 0 10 -4 16 -9 13 -5 -3
-14 8 -21 24 -7 17 -16 30 -21 30 -5 0 -9 9 -9 21 0 11 -4 17 -10 14 -5 -3
-10 4 -10 15 0 15 -5 20 -14 17 -10 -4 -12 0 -9 14 3 10 1 19 -5 19 -5 0 -15
14 -22 30 -7 17 -22 37 -34 45 -14 11 -16 15 -6 15 11 1 11 3 -3 11 -9 6 -15
14 -12 20 4 5 2 9 -3 9 -4 0 -19 19 -32 43 -13 23 -28 45 -34 49 -6 4 -7 8 -3
8 5 0 1 7 -7 16 -9 8 -14 20 -11 25 4 5 -1 9 -11 9 -12 0 -15 6 -11 21 4 14 1
19 -7 16 -7 -3 -13 4 -14 16 0 12 -6 23 -12 25 -5 2 -8 7 -5 12 2 4 -4 18 -16
31 -11 12 -17 29 -15 36 4 8 -3 13 -17 13 -18 0 -19 2 -7 10 10 6 11 10 3 10
-7 0 -13 7 -13 15 0 8 -4 15 -10 15 -5 0 -10 5 -10 11 0 5 6 7 13 4 6 -4 1 3
-13 15 -14 12 -19 19 -12 15 11 -6 11 -3 0 14 -7 12 -16 21 -20 21 -4 0 -5 7
-1 15 3 9 2 15 -3 14 -20 -3 -24 2 -14 21 9 16 8 18 -5 14 -11 -5 -14 -2 -8
12 4 12 3 15 -5 10 -8 -5 -12 0 -13 13 -2 34 -4 39 -13 48 -5 5 -6 3 -2 -4 4
-7 5 -13 2 -13 -2 0 -11 14 -20 30 -8 17 -10 28 -5 25 10 -7 1 24 -14 42 -5 7
-13 10 -18 7 -5 -3 -6 2 -3 11 4 8 1 21 -5 29 -6 7 -8 16 -4 19 3 4 1 7 -6 7
-7 0 -9 5 -6 10 3 6 1 10 -5 10 -6 0 -9 4 -6 9 4 5 1 11 -5 13 -6 2 -11 16
-11 31 0 16 -5 24 -11 20 -6 -4 -8 0 -4 10 4 12 1 17 -11 18 -9 0 -12 3 -5 5
7 3 9 12 6 20 -3 7 -10 11 -16 7 -6 -3 -7 -1 -3 5 4 6 0 25 -9 42 -9 17 -13
35 -10 40 3 6 1 10 -4 10 -6 0 -11 9 -11 21 0 12 -4 17 -11 13 -7 -4 -7 1 1
16 8 15 8 20 1 16 -7 -5 -11 1 -11 14 0 12 -4 18 -10 15 -13 -8 -13 1 0 25 9
16 8 18 -6 13 -12 -4 -15 -3 -10 6 5 7 2 20 -6 29 -8 9 -14 29 -13 45 0 15 -3
27 -7 27 -4 0 -8 10 -8 23 0 13 -6 29 -12 36 -7 8 -8 11 -2 8 6 -3 11 0 11 8
0 8 -5 13 -10 12 -5 -1 -12 4 -15 12 -3 9 0 11 9 6 11 -6 11 -5 2 5 -6 7 -9
19 -5 28 4 12 1 14 -14 8 -14 -5 -16 -4 -7 4 7 8 8 22 3 40 -5 16 -6 31 -2 34
3 3 -1 6 -8 6 -7 0 -10 3 -7 7 4 3 1 13 -6 21 -10 13 -9 15 8 9 18 -6 19 -6 3
6 -12 10 -14 17 -7 24 8 8 8 13 0 17 -5 4 -8 13 -4 21 3 8 1 15 -5 15 -12 0
-11 18 2 39 7 11 5 13 -8 8 -13 -5 -15 -3 -7 11 5 10 6 23 2 30 -4 7 -6 25 -5
42 1 17 -3 30 -9 30 -8 0 -9 3 -2 8 6 4 11 43 10 87 0 44 5 83 10 87 6 5 5 8
-3 8 -10 0 -9 4 3 16 11 11 13 20 6 28 -7 9 -7 16 1 24 7 7 8 12 4 12 -5 0 -3
7 4 15 10 12 10 15 -1 15 -8 0 -6 6 7 16 10 8 12 12 4 8 -13 -7 -13 -5 -2 9 8
9 11 20 8 26 -3 5 1 11 9 15 8 3 12 12 9 21 -3 8 -1 15 5 15 6 0 10 6 9 13 -2
6 3 11 10 9 8 -1 11 2 8 7 -8 12 20 66 34 66 5 0 9 3 8 6 -2 4 5 16 15 26 9
11 14 23 10 26 -3 4 4 7 16 7 12 0 19 4 16 10 -3 5 5 15 19 22 14 6 26 18 27
27 0 12 2 13 6 2 4 -11 10 -8 25 10 11 13 17 19 14 12 -5 -8 0 -8 19 0 14 7
25 15 25 20 0 4 9 7 21 7 11 0 18 3 15 8 -2 4 9 8 26 9 17 0 33 5 37 10 3 5
15 9 26 8 11 0 23 5 27 10 5 6 8 5 8 -3 0 -7 5 -10 10 -7 6 4 8 11 4 16 -7 12
19 7 29 -6 4 -6 10 -6 15 2 4 6 23 10 45 8 20 -2 37 0 37 6 0 6 5 7 11 3 6 -4
44 -7 83 -7 39 0 77 -5 85 -11 11 -8 13 -8 7 2 -9 15 -1 15 26 1 16 -8 19 -8
13 1 -5 9 -3 9 11 2 11 -5 29 -8 42 -7 13 1 25 -2 28 -7 3 -4 10 -5 16 -2 6 4
14 0 19 -7 7 -12 9 -11 9 1 0 13 1 13 10 0 9 -13 10 -13 10 0 0 12 2 12 8 2 5
-7 28 -14 51 -16 24 -2 47 -9 52 -17 7 -12 9 -12 9 0 0 11 3 11 15 1 8 -7 22
-10 30 -6 9 3 18 -1 21 -9 3 -7 11 -12 18 -9 7 3 28 -2 47 -9 18 -8 40 -12 48
-9 10 3 12 0 7 -13 -5 -15 -4 -16 9 -5 12 10 15 10 15 0 0 -10 3 -10 15 0 12
10 16 9 21 -4 3 -9 17 -16 31 -16 13 0 31 -7 39 -15 19 -18 38 -20 29 -2 -4 6
0 4 9 -7 8 -10 19 -15 25 -12 5 3 16 -1 24 -9 9 -8 27 -15 42 -15 15 0 24 -4
20 -10 -4 -6 5 -10 19 -10 14 0 26 -4 26 -10 0 -5 9 -10 20 -10 11 0 20 -3 20
-7 0 -5 11 -9 25 -9 13 -1 32 -9 40 -18 20 -19 29 -21 20 -3 -4 6 0 4 8 -5 8
-10 17 -15 20 -11 4 3 10 -2 13 -11 5 -14 9 -15 15 -4 7 10 9 10 9 1 0 -7 9
-13 20 -13 11 0 20 -5 20 -11 0 -5 4 -8 9 -5 5 3 14 -1 21 -9 7 -8 21 -15 31
-15 11 0 19 -5 19 -11 0 -5 4 -8 9 -4 5 3 17 -2 26 -11 8 -9 26 -17 39 -18 13
0 22 -4 19 -8 -2 -5 3 -8 11 -8 8 0 20 -8 25 -17 6 -10 11 -13 11 -8 0 6 5 3
10 -5 8 -12 10 -12 10 -1 0 9 7 7 19 -8 11 -12 22 -22 25 -22 24 3 36 -1 31
-9 -3 -5 3 -10 14 -10 12 0 21 -5 21 -11 0 -5 5 -7 10 -4 6 3 10 1 10 -6 0 -7
3 -10 6 -6 3 3 15 -3 26 -13 11 -10 27 -16 35 -13 7 3 13 2 11 -3 -2 -5 2 -10
7 -12 6 -2 19 -11 29 -20 15 -13 18 -14 12 -2 -4 8 0 6 8 -4 9 -11 16 -17 16
-13 0 4 10 -1 22 -12 11 -11 25 -18 29 -15 4 2 12 -3 17 -11 5 -9 17 -18 28
-19 10 -2 18 -9 16 -16 -1 -6 2 -9 7 -5 6 3 19 -3 29 -13 10 -10 24 -16 30
-14 7 2 12 -1 12 -8 0 -6 5 -8 10 -5 6 3 10 -2 10 -12 0 -14 2 -15 9 -5 7 11
9 11 14 -2 4 -9 11 -16 17 -16 16 0 40 -26 32 -34 -3 -4 1 -4 11 0 10 3 17 1
17 -6 0 -7 8 -9 23 -5 17 5 19 4 7 -4 -13 -10 -8 -15 13 -12 4 0 7 -3 7 -9 0
-5 7 -10 15 -10 8 0 15 -4 15 -8 0 -5 12 -15 28 -23 15 -8 29 -17 33 -21 3 -4
20 -9 38 -11 18 -2 37 -10 42 -18 6 -9 9 -10 9 -2 0 7 7 10 17 6 12 -5 14 -3
8 8 -8 12 -6 12 8 0 12 -9 17 -10 17 -2 0 7 5 9 10 6 6 -3 10 -1 10 5 0 6 4 9
9 6 5 -3 12 1 15 10 3 9 11 12 18 8 7 -4 10 -4 6 1 -4 4 0 14 10 22 11 10 12
12 2 8 -9 -4 -7 0 4 9 10 8 16 21 13 28 -2 7 3 22 12 32 9 11 10 16 4 12 -7
-4 -13 -3 -13 1 0 5 6 15 13 22 10 11 10 13 0 7 -9 -5 -13 1 -13 18 0 14 -8
30 -17 35 -10 6 -15 11 -11 11 5 0 -2 11 -14 25 -11 13 -25 22 -30 19 -4 -3
-8 0 -8 6 0 6 -4 8 -10 5 -5 -3 -10 1 -10 10 0 9 -4 13 -10 10 -6 -3 -10 -1
-10 5 0 6 -4 8 -10 5 -6 -3 -10 -1 -10 5 0 7 -7 10 -15 6 -11 -4 -15 1 -15 17
0 18 -2 19 -10 7 -6 -10 -10 -11 -10 -3 0 7 -15 20 -32 29 -18 9 -36 22 -40
28 -4 6 -8 7 -8 2 0 -4 -9 2 -21 15 -11 13 -18 17 -14 9 4 -8 -1 -6 -10 5 -9
11 -22 19 -29 17 -8 -1 -16 4 -20 13 -3 8 -15 15 -26 15 -12 0 -24 9 -30 23
-5 12 -9 16 -9 10 -1 -7 -6 -13 -12 -13 -6 0 -9 6 -6 14 4 10 0 12 -15 8 -14
-3 -19 -1 -14 6 5 8 0 12 -12 12 -11 0 -23 7 -26 16 -3 8 -10 12 -16 9 -5 -3
-10 -1 -10 5 0 6 -4 8 -10 5 -5 -3 -10 1 -10 9 0 9 -5 16 -11 16 -5 0 -7 -6
-3 -12 4 -7 -4 -4 -17 7 -13 12 -37 27 -54 35 -16 8 -33 19 -36 23 -3 5 -15
10 -25 11 -10 2 -18 9 -17 14 2 7 -4 9 -14 5 -12 -5 -14 -3 -8 7 5 8 3 11 -6
8 -18 -7 -51 10 -44 22 3 6 -1 7 -9 4 -9 -3 -16 -1 -16 5 0 6 -3 10 -7 9 -13
-4 -73 24 -73 33 0 5 -3 8 -7 8 -19 -3 -34 2 -29 10 3 4 -6 7 -19 6 -13 -2
-23 1 -22 7 1 6 -7 12 -18 14 -11 1 -21 8 -23 14 -2 5 -7 8 -12 5 -5 -3 -16 2
-24 11 -9 8 -16 13 -16 10 0 -4 -22 5 -50 19 -27 14 -53 26 -57 28 -5 1 -7 5
-5 10 1 4 -9 5 -23 3 -17 -3 -23 -1 -19 6 5 7 1 9 -9 5 -10 -3 -17 -2 -17 3 0
6 -9 10 -20 10 -11 0 -23 6 -26 14 -3 8 -13 12 -25 9 -10 -3 -19 -1 -19 5 0 5
-7 13 -16 16 -8 3 -12 2 -9 -4 3 -6 1 -10 -4 -10 -6 0 -11 6 -11 14 0 8 -7 17
-16 20 -8 3 -12 2 -9 -4 3 -6 1 -10 -4 -10 -6 0 -11 5 -11 11 0 5 -4 7 -10 4
-5 -3 -10 -1 -10 5 0 6 -4 8 -10 5 -5 -3 -10 0 -10 7 0 11 -2 10 -9 0 -7 -11
-9 -11 -14 1 -3 9 -16 13 -31 12 -15 -2 -24 2 -23 8 1 7 -7 11 -20 9 -13 -2
-23 2 -23 8 0 6 -4 8 -10 5 -5 -3 -10 -2 -10 2 0 5 -11 10 -25 11 -47 3 -55 5
-55 14 0 4 -14 8 -31 8 -16 0 -28 4 -24 9 3 6 -3 8 -15 6 -11 -2 -22 0 -25 5
-3 5 -12 7 -20 3 -8 -3 -15 -1 -15 3 0 5 -17 10 -38 12 -20 1 -38 7 -40 12 -2
5 -10 6 -18 3 -8 -3 -14 -1 -14 3 0 8 -27 12 -117 17 -17 1 -29 5 -27 8 2 4
-3 9 -11 13 -8 3 -17 1 -21 -5 -4 -6 -11 -6 -20 2 -8 6 -14 8 -14 5 0 -4 -10
-2 -21 5 -15 8 -19 8 -15 0 4 -6 2 -11 -3 -11 -6 0 -11 3 -11 8 0 4 -28 7 -63
7 -34 0 -71 2 -83 6 -11 4 -28 3 -37 -2 -12 -7 -17 -6 -17 3 0 10 -2 10 -9 -1
-6 -9 -11 -10 -15 -2 -4 6 -13 8 -19 4 -17 -11 -71 -10 -79 2 -5 6 -8 6 -8 -2z
m-590 -257 c0 -2 -8 -10 -17 -17 -16 -13 -17 -12 -4 4 13 16 21 21 21 13z
m6004 -68 c7 12 95 10 115 -2 9 -6 12 -5 7 2 -8 14 126 11 136 -3 5 -6 8 -4 8
5 0 11 3 12 8 3 4 -6 29 -13 55 -14 35 -2 47 -7 47 -18 0 -14 1 -14 10 -1 9
13 10 13 10 0 0 -13 1 -13 10 0 7 11 10 11 10 2 0 -7 4 -11 9 -8 5 4 11 2 13
-4 1 -5 15 -11 31 -12 17 -2 26 -7 23 -15 -3 -7 1 -10 10 -6 8 3 20 0 28 -6 7
-6 17 -7 21 -3 5 4 5 2 1 -5 -3 -7 2 -14 14 -18 11 -4 17 -11 14 -17 -4 -6 1
-8 15 -3 16 5 20 3 15 -9 -3 -9 -1 -16 6 -16 15 0 41 -26 33 -34 -4 -3 1 -6 9
-6 9 0 22 -8 29 -17 12 -16 12 -17 -1 -8 -9 6 -7 2 3 -7 11 -10 16 -18 12 -18
-3 0 1 -7 10 -16 9 -9 14 -23 11 -31 -3 -8 -1 -11 4 -8 6 3 10 -1 10 -10 0 -9
4 -13 10 -10 6 4 8 -6 6 -24 -2 -17 0 -28 5 -25 4 2 13 -5 19 -17 8 -15 9 -19
1 -15 -16 10 -13 -6 6 -33 11 -16 12 -21 3 -16 -9 5 -8 0 3 -15 12 -18 14 -27
5 -37 -8 -10 -6 -13 8 -13 11 0 15 -4 9 -8 -15 -11 -17 -32 -2 -32 8 0 7 -4
-3 -10 -8 -5 -10 -10 -5 -10 12 0 13 -159 2 -177 -4 -7 -2 -15 4 -19 8 -4 7
-9 -2 -15 -10 -6 -10 -9 -2 -9 9 0 10 -7 4 -22 -4 -13 -6 -29 -3 -37 3 -9 0
-11 -8 -6 -9 6 -9 3 -1 -14 9 -16 9 -21 0 -21 -7 0 -9 -3 -6 -7 4 -3 2 -12 -4
-19 -7 -8 -7 -14 0 -18 6 -4 7 -15 1 -30 -4 -12 -11 -39 -14 -58 -3 -19 -10
-47 -15 -62 -6 -14 -8 -26 -5 -26 2 0 0 -8 -5 -18 -7 -13 -6 -23 2 -32 8 -9 8
-11 1 -7 -14 8 -21 -9 -19 -45 2 -23 -1 -26 -12 -17 -11 9 -12 9 -8 -4 4 -8 2
-18 -4 -22 -8 -4 -8 -12 -1 -26 8 -15 7 -21 -4 -25 -8 -3 -13 -14 -11 -25 2
-10 -1 -19 -6 -19 -6 0 -7 -4 -4 -10 3 -5 1 -10 -6 -10 -7 0 -9 -3 -6 -7 4 -3
1 -13 -6 -21 -9 -13 -9 -14 0 -8 9 5 11 2 7 -8 -3 -9 -10 -14 -15 -11 -4 3 -6
-4 -4 -15 2 -11 -1 -20 -6 -20 -6 0 -8 -4 -4 -9 3 -5 -2 -17 -11 -25 -9 -9
-11 -16 -4 -16 7 0 5 -6 -4 -15 -8 -9 -13 -22 -10 -30 4 -8 1 -15 -5 -15 -6 0
-11 -7 -11 -15 0 -8 -6 -15 -12 -15 -9 0 -8 -3 2 -10 12 -8 12 -10 -2 -15 -10
-4 -14 -14 -10 -27 4 -16 2 -19 -8 -13 -10 6 -12 4 -7 -8 4 -10 2 -17 -4 -17
-6 0 -9 -7 -5 -15 3 -8 1 -15 -4 -15 -6 0 -10 -7 -10 -16 0 -8 -4 -13 -9 -9
-6 3 -8 -4 -6 -15 2 -11 -1 -20 -6 -20 -6 0 -7 -4 -4 -10 3 -5 1 -10 -5 -10
-6 0 -9 -4 -6 -9 3 -5 -1 -14 -9 -21 -8 -7 -13 -16 -10 -20 2 -4 -4 -17 -14
-29 -11 -13 -18 -31 -16 -42 3 -12 0 -17 -7 -13 -7 5 -9 1 -5 -9 4 -10 2 -16
-6 -14 -7 1 -13 -10 -15 -26 -2 -15 -8 -25 -13 -22 -5 4 -9 0 -9 -8 0 -21 -30
-77 -41 -77 -6 0 -8 -4 -4 -9 3 -5 1 -12 -5 -16 -6 -4 -8 -11 -5 -16 4 -5 -1
-12 -10 -15 -9 -4 -14 -13 -11 -20 3 -8 1 -14 -4 -14 -6 0 -10 -7 -10 -15 0
-9 -7 -18 -16 -22 -13 -5 -13 -7 -2 -14 10 -7 9 -9 -5 -9 -9 0 -16 -3 -16 -7
4 -22 -2 -33 -13 -27 -8 5 -7 0 2 -11 8 -10 10 -16 4 -12 -7 4 -18 -1 -25 -10
-10 -12 -10 -14 -1 -9 6 4 12 3 12 -2 0 -6 -7 -13 -16 -16 -8 -3 -13 -10 -10
-15 3 -5 -1 -12 -10 -15 -9 -4 -14 -13 -10 -21 3 -8 0 -14 -7 -12 -7 1 -11 -4
-9 -10 1 -7 -3 -13 -9 -13 -5 0 -7 -4 -4 -10 3 -5 1 -10 -5 -10 -6 0 -8 -5 -5
-10 3 -6 0 -13 -8 -16 -9 -3 -18 -16 -21 -30 -4 -13 -11 -24 -17 -24 -6 0 -7
-4 -4 -10 3 -5 1 -10 -5 -10 -6 0 -8 -4 -5 -10 3 -5 1 -10 -4 -10 -6 0 -11 -7
-11 -15 0 -8 -4 -15 -10 -15 -5 0 -12 -11 -16 -25 -3 -14 -10 -23 -14 -20 -4
3 -11 -7 -14 -20 -4 -17 -11 -23 -19 -18 -7 4 -6 -1 3 -13 8 -10 11 -16 6 -12
-11 10 -39 -19 -31 -32 4 -6 1 -9 -6 -8 -7 2 -13 -1 -14 -7 -1 -18 -32 -55
-39 -48 -4 4 -4 0 0 -10 3 -10 1 -17 -5 -17 -6 0 -11 -6 -11 -14 0 -8 -7 -17
-16 -20 -8 -3 -12 -10 -9 -16 3 -6 -1 -13 -9 -16 -9 -3 -16 -12 -16 -20 0 -8
-4 -14 -10 -14 -5 0 -10 -7 -10 -15 0 -8 -5 -15 -11 -15 -5 0 -8 -4 -5 -9 3
-5 -1 -12 -10 -15 -9 -3 -12 -11 -8 -18 5 -8 2 -9 -9 -5 -11 4 -14 2 -10 -8 3
-8 -2 -18 -11 -21 -9 -3 -13 -10 -10 -15 3 -5 1 -9 -5 -9 -5 0 -13 -9 -16 -20
-3 -11 -13 -20 -22 -20 -9 0 -13 -6 -10 -14 4 -10 0 -12 -14 -9 -10 3 -16 9
-13 14 3 5 1 9 -4 9 -5 0 -14 12 -20 26 -7 14 -17 22 -22 19 -6 -3 -10 3 -10
14 0 13 -7 21 -16 21 -10 0 -14 6 -11 14 4 9 -2 17 -14 21 -10 4 -19 10 -19
15 0 5 -13 22 -30 38 -16 16 -27 32 -24 35 3 3 -4 11 -16 17 -13 7 -19 17 -16
26 3 9 1 12 -4 9 -6 -3 -13 1 -16 9 -3 9 -14 16 -23 16 -13 0 -13 2 -2 9 11 7
9 10 -8 16 -11 3 -21 11 -21 17 0 5 -14 23 -31 39 -17 16 -29 29 -26 29 4 0
-5 11 -19 25 -14 14 -30 25 -37 25 -7 0 -6 4 3 10 13 8 13 10 -2 10 -9 0 -20
5 -24 12 -5 7 -3 8 7 3 8 -5 -12 17 -43 48 -32 30 -58 60 -58 65 0 5 -11 15
-25 22 -14 7 -25 19 -25 27 0 7 -9 18 -20 25 -11 7 -20 18 -20 25 0 6 -5 15
-12 19 -7 5 -9 2 -4 -7 4 -8 1 -5 -8 6 -8 11 -20 25 -25 31 -5 7 -7 15 -3 20
4 4 2 4 -4 1 -12 -7 -46 28 -37 37 4 3 1 6 -6 6 -7 0 -19 7 -27 15 -9 8 -12
15 -7 15 4 0 -4 8 -17 17 -14 10 -28 17 -32 16 -4 -2 -4 5 -1 14 4 11 3 14 -5
9 -7 -4 -12 -1 -12 9 0 9 -4 13 -10 10 -5 -3 -10 1 -10 10 0 9 -4 14 -9 10 -5
-3 -12 4 -16 15 -3 11 -13 20 -21 20 -8 0 -12 5 -9 10 3 6 -1 10 -9 10 -9 0
-15 5 -14 12 2 6 -7 17 -20 23 -13 7 -24 16 -25 21 -1 5 -5 8 -9 6 -5 -1 -8 3
-8 9 0 15 -26 39 -34 32 -6 -6 -10 12 -7 30 0 4 -2 6 -6 6 -5 -1 -15 -1 -23 0
-13 1 -13 2 0 12 12 9 11 10 -7 6 -16 -4 -20 -1 -16 11 5 12 2 14 -12 9 -16
-7 -16 -5 -4 10 9 11 10 14 1 9 -7 -4 -15 -1 -18 8 -3 9 -13 16 -21 16 -8 0
-11 5 -8 10 3 6 -1 10 -9 10 -9 0 -16 8 -16 17 0 9 -3 14 -6 10 -8 -8 -34 18
-34 33 0 6 -4 9 -8 6 -5 -3 -15 4 -22 15 -8 10 -20 19 -28 19 -7 0 -11 3 -9 8
2 4 -6 17 -19 30 -13 12 -24 20 -24 18 0 -3 -10 5 -23 17 -13 12 -21 26 -19
31 3 5 -2 7 -11 3 -16 -6 -22 4 -17 28 1 6 -1 7 -5 3 -8 -7 -11 -5 -62 41 -18
15 -29 31 -26 35 3 3 -1 6 -10 6 -9 0 -17 5 -17 10 0 6 -7 10 -16 10 -9 0 -18
9 -21 20 -3 11 -12 20 -19 20 -8 0 -19 10 -24 23 -5 13 -9 16 -10 7 0 -12 -3
-11 -11 3 -6 9 -15 14 -21 11 -7 -4 -8 -2 -4 4 4 7 -3 17 -18 23 -14 7 -24 15
-22 18 2 3 -2 12 -10 19 -8 7 -14 10 -14 5 0 -4 -6 1 -13 11 -7 9 -22 18 -35
19 -12 0 -22 6 -22 11 0 5 -3 6 -7 3 -3 -4 -12 -2 -20 4 -10 9 -13 8 -13 -1 0
-10 -3 -10 -15 0 -13 11 -14 10 -8 -6 6 -17 5 -17 -10 -5 -12 9 -17 10 -17 2
0 -7 -4 -9 -10 -6 -5 3 -10 1 -10 -5 0 -6 -3 -9 -7 -7 -10 5 -63 -50 -55 -57
3 -3 1 -6 -4 -6 -5 0 -10 -8 -10 -17 -1 -10 -5 -27 -9 -37 -6 -15 -5 -17 5
-11 10 6 11 4 4 -6 -12 -20 -14 -39 -3 -39 6 0 8 -4 4 -9 -3 -5 -1 -12 5 -16
6 -4 7 -11 4 -17 -4 -7 -2 -8 4 -4 7 4 12 1 12 -9 0 -9 5 -13 10 -10 6 3 10
-1 10 -9 0 -8 9 -17 19 -21 11 -3 22 -13 25 -21 3 -9 11 -12 18 -8 7 4 10 4 6
-1 -8 -9 16 -35 32 -35 7 0 9 -7 6 -16 -3 -8 -2 -13 3 -9 5 3 16 -1 24 -9 8
-8 17 -12 21 -9 3 4 6 -1 6 -10 0 -9 4 -17 10 -17 5 0 20 -11 33 -24 14 -14
28 -22 32 -18 4 4 6 3 5 -3 -5 -24 1 -37 15 -31 9 3 15 0 15 -10 0 -8 8 -18
17 -21 9 -4 42 -32 72 -62 30 -31 51 -49 47 -41 -4 8 0 6 8 -4 9 -11 16 -24
16 -29 0 -5 8 -6 17 -3 10 4 14 4 10 0 -4 -5 3 -14 15 -22 13 -7 15 -11 6 -8
-10 3 -18 1 -18 -4 0 -6 7 -10 16 -10 9 0 28 -13 44 -30 15 -16 30 -26 34 -23
3 3 6 1 6 -6 0 -16 26 -42 34 -34 3 4 6 -1 6 -10 0 -10 6 -17 13 -17 14 0 47
-35 47 -50 0 -6 6 -10 13 -10 14 0 47 -35 47 -50 0 -6 6 -9 13 -8 6 2 11 -5
11 -14 -1 -11 4 -14 14 -11 10 4 13 2 8 -5 -4 -7 -2 -12 3 -12 6 0 20 -9 31
-20 11 -11 20 -25 20 -31 0 -5 5 -7 10 -4 6 3 10 1 10 -5 0 -15 25 -40 40 -40
6 0 8 -4 5 -10 -3 -5 1 -10 9 -10 8 0 18 -5 22 -12 4 -7 3 -8 -4 -4 -7 4 -12
3 -12 -2 0 -5 9 -12 21 -15 13 -4 18 -10 13 -18 -4 -7 -3 -10 3 -6 6 4 19 -4
29 -18 10 -13 21 -22 26 -19 4 3 5 -2 2 -10 -4 -11 0 -16 11 -16 9 0 13 -4 10
-10 -3 -5 1 -10 9 -10 9 0 16 -4 16 -10 0 -5 21 -31 48 -57 26 -25 41 -43 33
-38 -10 5 -12 4 -7 -3 4 -7 14 -12 23 -12 9 0 13 -6 9 -15 -3 -8 -2 -15 3 -15
15 0 51 -37 43 -45 -4 -5 1 -5 11 -2 10 4 16 3 12 -2 -3 -5 14 -29 37 -52 24
-24 34 -37 23 -29 -20 14 -20 14 -1 -7 10 -13 23 -20 28 -17 4 3 7 0 6 -8 -2
-7 3 -12 10 -10 6 1 11 -4 10 -10 -2 -7 2 -12 9 -11 7 2 10 -6 8 -17 -2 -12 0
-18 6 -15 5 4 9 -1 9 -9 0 -9 6 -16 14 -16 7 0 20 -8 27 -17 12 -14 12 -16 -1
-9 -8 5 -3 -3 13 -16 15 -14 27 -31 27 -37 0 -7 5 -9 10 -6 9 6 14 -8 11 -28
-1 -5 3 -6 9 -2 5 3 10 1 10 -5 0 -6 5 -8 12 -4 7 4 8 3 4 -4 -4 -7 10 -28 31
-49 21 -20 32 -33 26 -29 -7 4 -13 2 -13 -3 0 -6 6 -11 14 -11 8 0 18 -9 21
-20 3 -11 14 -20 22 -20 9 0 14 -3 10 -6 -3 -4 1 -13 9 -21 8 -8 11 -20 7 -26
-3 -7 -3 -9 2 -5 9 8 35 -15 35 -32 0 -6 5 -8 10 -5 6 3 10 -2 11 -12 0 -10 2
-26 4 -35 2 -10 0 -16 -3 -15 -4 1 -9 -2 -11 -8 -3 -5 -22 -27 -42 -47 -21
-21 -35 -38 -31 -38 4 0 -2 -7 -12 -15 -11 -8 -17 -15 -13 -15 5 0 2 -6 -5
-14 -7 -8 -17 -11 -22 -8 -5 3 -7 -2 -3 -11 3 -9 0 -18 -9 -21 -9 -3 -12 -11
-8 -17 4 -8 3 -9 -4 -5 -12 7 -38 -32 -33 -49 1 -5 0 -7 -4 -4 -7 8 -55 -34
-55 -47 0 -5 -9 -16 -19 -24 -11 -7 -17 -18 -14 -24 4 -5 -1 -7 -11 -3 -10 4
-15 3 -11 -3 3 -6 -1 -13 -9 -16 -9 -3 -13 -10 -10 -15 3 -5 0 -9 -6 -9 -6 0
-8 -4 -5 -10 3 -5 -1 -10 -10 -10 -11 0 -15 -5 -11 -15 3 -8 2 -14 -2 -14 -19
3 -33 -2 -28 -10 4 -5 -6 -19 -21 -31 -16 -12 -22 -18 -14 -14 9 5 12 3 7 -4
-4 -7 -14 -12 -23 -12 -9 0 -14 -3 -10 -6 3 -4 -9 -22 -29 -40 -19 -19 -31
-34 -27 -34 4 0 -2 -6 -12 -14 -11 -8 -24 -12 -29 -9 -5 4 -6 1 -1 -6 4 -8 -6
-25 -29 -47 -20 -19 -36 -39 -36 -45 0 -5 -3 -8 -7 -6 -10 6 -34 -19 -26 -27
4 -3 1 -6 -5 -6 -7 0 -12 -6 -12 -14 0 -8 -5 -18 -12 -22 -7 -4 -8 -3 -4 4 5
8 2 10 -9 6 -9 -4 -14 -9 -11 -12 3 -2 -10 -20 -29 -39 -19 -19 -35 -40 -35
-45 0 -6 -7 -8 -15 -4 -8 3 -14 2 -13 -2 3 -16 -15 -41 -25 -35 -6 4 -8 0 -4
-10 4 -12 2 -14 -10 -10 -11 4 -14 2 -9 -5 6 -11 -5 -16 -26 -13 -4 0 -5 -6
-2 -14 4 -10 0 -15 -11 -15 -9 0 -13 -4 -10 -10 3 -5 1 -10 -5 -10 -6 0 -8 -4
-5 -10 4 -6 -1 -7 -11 -3 -12 4 -15 3 -10 -5 4 -8 -2 -16 -16 -21 -13 -6 -19
-10 -14 -10 9 -1 -58 -68 -90 -89 -10 -7 -12 -10 -4 -7 8 4 6 -1 -5 -10 -11
-9 -19 -20 -18 -25 2 -5 -5 -6 -15 -3 -9 3 -14 3 -10 -1 8 -10 -14 -36 -24
-29 -5 2 -8 -2 -8 -10 0 -15 -27 -32 -43 -28 -5 1 -6 -3 -2 -9 3 -5 1 -10 -5
-10 -6 0 -8 -5 -5 -10 3 -5 -1 -10 -9 -10 -9 0 -16 -7 -16 -15 0 -9 -6 -12
-15 -8 -9 3 -15 2 -14 -3 4 -21 -2 -35 -11 -29 -5 3 -10 1 -10 -5 0 -6 -4 -9
-8 -6 -4 2 -18 -11 -31 -30 -14 -19 -30 -33 -37 -30 -9 3 -11 0 -7 -11 4 -11
2 -14 -5 -9 -6 3 -16 -3 -22 -14 -6 -11 -15 -18 -21 -15 -5 4 -8 1 -7 -6 2 -7
-7 -18 -19 -24 -13 -7 -20 -15 -15 -20 4 -4 -1 -5 -10 -2 -10 3 -17 3 -17 -1
3 -18 -2 -35 -8 -29 -3 4 -16 -5 -29 -18 -13 -14 -28 -25 -34 -25 -5 0 -9 -3
-7 -7 1 -5 -3 -10 -8 -12 -6 -3 -18 -14 -28 -25 -10 -12 -16 -14 -12 -6 4 8 0
6 -9 -4 -8 -10 -13 -23 -10 -28 3 -5 2 -7 -3 -6 -4 1 -18 -1 -30 -6 -15 -5
-20 -12 -16 -23 5 -13 2 -15 -11 -10 -9 4 -15 3 -11 -2 3 -5 -4 -12 -15 -16
-11 -4 -18 -11 -15 -16 6 -8 -8 -13 -27 -10 -5 0 -7 -2 -6 -7 0 -4 -7 -25 -16
-47 -20 -44 -23 -102 -7 -118 6 -6 11 -19 11 -29 0 -12 8 -18 23 -18 15 0 18
-3 9 -8 -18 -12 16 -39 46 -36 17 1 22 -3 17 -15 -5 -13 -4 -13 6 -4 10 10 16
10 28 0 12 -9 13 -9 7 1 -4 7 -1 12 9 12 10 0 14 -5 10 -12 -4 -7 0 -5 8 5 8
9 24 17 36 17 11 0 21 5 21 10 0 6 7 10 15 10 8 0 15 7 15 15 0 8 3 14 8 14
17 -3 33 2 29 8 -3 5 1 14 9 21 8 7 14 10 14 7 0 -4 14 7 31 24 17 17 34 29
39 26 4 -3 7 3 6 13 0 9 5 16 12 14 7 -1 15 5 18 13 4 8 12 15 20 15 8 0 13 4
11 8 -4 13 55 62 66 55 5 -3 8 -2 5 3 -3 5 10 25 30 44 19 19 29 26 22 15 -7
-11 0 -6 17 10 17 17 29 33 26 37 -2 4 7 10 21 14 16 4 23 11 19 20 -3 10 0
12 10 9 9 -4 16 2 20 15 3 12 10 19 16 15 6 -3 11 1 11 9 0 14 11 20 32 17 4
0 4 7 1 16 -4 9 -2 14 3 11 5 -3 15 0 22 8 7 8 9 14 5 15 -4 0 2 4 15 9 12 5
22 16 22 25 0 13 12 19 32 16 5 0 7 5 5 12 -1 6 4 11 10 10 7 -2 12 1 10 6 -3
11 50 61 66 61 7 0 6 4 -3 10 -13 9 -13 10 0 10 18 0 56 41 51 55 -1 5 1 7 5
3 10 -11 35 12 27 26 -3 6 -3 8 1 5 9 -8 165 143 159 154 -2 4 1 7 7 7 18 0
80 71 73 84 -3 6 -3 8 1 4 10 -8 47 23 40 34 -3 5 -2 7 3 6 7 -3 69 54 65 60
-1 1 0 1 3 0 2 -2 16 13 30 32 14 19 32 38 40 43 9 4 12 13 9 19 -5 8 -1 9 10
5 9 -4 15 -3 12 1 -5 9 22 48 32 45 4 -2 7 1 7 5 0 14 32 41 40 34 4 -4 6 -2
5 3 -5 21 0 36 10 30 6 -3 10 1 10 9 0 9 7 16 16 16 8 0 12 5 9 10 -3 6 -1 10
5 10 6 0 8 5 5 10 -3 6 2 10 11 10 10 0 14 3 11 6 -4 4 11 24 33 44 22 20 37
40 33 44 -3 3 -1 6 5 6 7 0 12 8 12 18 0 14 2 15 10 2 8 -13 10 -12 10 3 0 9
5 17 11 17 5 0 7 4 4 10 -3 6 1 10 10 10 9 0 13 5 10 10 -3 6 -1 10 5 10 6 0
8 5 5 10 -3 6 1 10 9 10 15 0 21 12 17 33 -1 5 3 6 8 3 5 -3 14 1 21 9 7 8 9
15 6 15 -4 0 -1 6 6 14 7 8 16 12 19 10 3 -2 13 12 22 31 9 19 21 35 26 35 5
0 13 9 16 20 5 17 9 18 28 8 21 -11 21 -10 7 8 -14 18 -14 18 3 5 9 -7 17 -19
17 -25 0 -6 9 -18 19 -26 11 -7 18 -17 16 -20 -7 -11 26 -51 36 -45 5 4 9 -3
9 -15 0 -11 7 -23 16 -27 8 -3 13 -12 10 -19 -3 -7 4 -16 15 -19 10 -4 17 -11
14 -16 -4 -5 1 -12 9 -15 9 -3 14 -10 11 -14 -3 -5 3 -16 12 -26 10 -10 18
-22 18 -28 1 -6 6 -10 12 -9 6 1 14 -4 17 -13 4 -10 1 -13 -7 -9 -6 4 -3 -1 7
-9 11 -9 16 -16 12 -16 -4 0 0 -7 8 -16 9 -8 13 -20 10 -26 -4 -6 -3 -8 3 -5
5 3 20 -12 32 -33 12 -22 26 -40 31 -40 5 0 7 -7 4 -15 -4 -8 -1 -15 4 -15 11
0 28 -38 24 -52 -1 -5 1 -7 6 -7 18 3 32 -2 32 -12 0 -5 -6 -7 -12 -4 -7 4 -6
1 3 -7 9 -7 14 -19 11 -27 -3 -8 0 -11 7 -7 6 4 11 1 11 -8 0 -9 5 -16 11 -16
5 0 7 -4 4 -10 -3 -5 -1 -10 6 -10 7 0 10 -3 6 -6 -3 -4 4 -15 16 -26 12 -11
16 -16 8 -12 -10 5 -8 -2 5 -25 10 -17 22 -31 27 -31 4 0 5 -4 2 -10 -3 -6 -3
-10 2 -10 8 0 35 -54 33 -65 0 -3 9 -15 22 -25 13 -11 19 -19 14 -20 -5 0 1
-12 15 -27 18 -21 19 -24 4 -13 -17 12 -16 10 3 -11 12 -14 22 -30 22 -36 0
-6 7 -13 15 -17 9 -3 12 -12 8 -22 -4 -11 1 -22 12 -30 11 -8 13 -14 6 -14 -7
0 -9 -5 -6 -10 4 -6 11 -8 16 -5 5 4 9 -3 9 -15 0 -12 4 -19 8 -16 4 2 9 -5 9
-16 1 -12 6 -24 10 -27 15 -11 38 -45 26 -37 -7 4 -13 2 -13 -3 0 -6 5 -11 10
-11 6 0 10 -9 10 -21 0 -13 4 -18 12 -13 8 5 9 2 5 -9 -4 -12 -1 -17 11 -17
15 0 15 -2 2 -10 -12 -8 -12 -10 5 -10 13 0 16 -3 8 -8 -8 -5 -8 -11 1 -24 7
-10 16 -15 19 -12 3 3 3 -3 0 -15 -3 -13 -1 -21 6 -21 7 0 9 -4 6 -10 -3 -5
-2 -10 3 -10 6 0 9 -8 8 -17 0 -10 4 -17 10 -16 6 1 10 -11 9 -27 -1 -17 2
-27 8 -23 6 4 8 -2 5 -15 -4 -12 -3 -20 1 -18 4 3 13 -4 20 -16 10 -16 10 -19
-1 -12 -7 4 -5 -2 5 -14 11 -11 16 -25 13 -30 -3 -6 1 -13 9 -16 8 -3 15 -9
14 -13 -4 -24 2 -53 10 -49 5 3 8 -7 7 -24 -1 -17 4 -32 11 -34 8 -4 12 -15 9
-31 -3 -14 0 -24 6 -22 6 1 12 -11 13 -26 1 -16 8 -33 16 -38 11 -7 11 -9 1
-9 -10 0 -10 -4 2 -16 19 -19 21 -28 4 -18 -9 6 -9 3 0 -9 8 -9 11 -21 7 -27
-3 -5 -1 -10 6 -10 7 0 9 -10 7 -25 -4 -18 -1 -25 10 -25 12 0 12 -2 1 -17
-10 -11 -10 -14 -1 -9 8 5 12 -1 12 -19 0 -15 5 -36 11 -47 9 -16 8 -19 -3
-12 -10 6 -11 5 -2 -7 6 -8 11 -28 10 -46 0 -17 2 -29 6 -27 4 2 9 0 13 -6 3
-5 0 -10 -7 -10 -8 0 -9 -3 -3 -8 6 -4 10 -14 10 -22 0 -8 4 -18 10 -22 7 -5
6 -8 -1 -8 -7 0 -9 -10 -6 -25 2 -14 8 -22 13 -19 5 3 6 -2 3 -10 -3 -9 -11
-13 -18 -9 -7 4 -7 1 1 -9 7 -8 10 -18 6 -21 -3 -4 0 -7 8 -7 11 0 11 -2 -1
-10 -8 -5 -10 -10 -5 -10 6 0 10 -37 10 -90 0 -49 -3 -90 -7 -90 -4 0 -5 -10
-3 -21 2 -12 -1 -31 -7 -43 -10 -19 -10 -20 6 -7 15 12 16 12 9 -5 -3 -10 -13
-23 -20 -27 -7 -5 -10 -13 -6 -20 11 -18 11 -47 0 -40 -6 4 -8 0 -4 -10 3 -10
2 -17 -4 -17 -6 0 -8 -4 -5 -9 3 -5 -5 -25 -19 -45 -13 -19 -20 -38 -15 -41 5
-3 0 -15 -11 -26 -11 -11 -17 -24 -14 -29 4 -6 -1 -10 -9 -10 -9 0 -15 -3 -15
-7 4 -23 -3 -32 -18 -26 -11 4 -14 3 -9 -5 7 -11 -33 -59 -46 -55 -4 2 -12 -6
-18 -17 -6 -11 -17 -20 -24 -20 -8 0 -16 -7 -20 -15 -3 -8 -9 -15 -13 -14 -20
3 -34 -2 -28 -10 3 -6 -4 -8 -15 -6 -11 2 -20 -1 -20 -7 0 -6 -9 -8 -21 -5
-15 4 -18 3 -9 -7 8 -10 5 -13 -12 -11 -13 1 -32 -3 -43 -9 -11 -6 -31 -11
-45 -11 -14 0 -28 -4 -32 -10 -5 -6 -8 -5 -8 3 0 10 -4 10 -16 -2 -11 -11 -21
-13 -33 -7 -10 6 -23 6 -32 0 -20 -12 -32 -11 -23 3 5 7 3 8 -7 2 -22 -13 -42
-14 -58 -1 -12 9 -13 9 -7 -1 5 -9 -4 -12 -39 -10 -25 0 -48 5 -51 10 -3 5
-12 4 -20 -3 -12 -10 -18 -8 -30 7 -9 10 -13 14 -10 8 7 -15 -29 -25 -42 -12
-6 6 -26 11 -44 12 -18 1 -39 5 -47 10 -10 7 -16 5 -19 -3 -3 -10 -6 -10 -12
-2 -3 7 -24 13 -46 15 -21 2 -46 7 -55 10 -9 4 -29 9 -45 11 -16 1 -28 7 -27
12 1 4 -14 8 -33 7 -19 -1 -34 3 -34 8 0 6 -9 8 -20 5 -14 -4 -20 0 -20 11 0
14 -2 14 -9 3 -6 -10 -10 -10 -16 -1 -4 6 -13 9 -21 6 -8 -3 -14 -1 -14 4 0 5
-7 6 -17 3 -10 -4 -14 -2 -9 5 4 6 -1 10 -11 10 -24 -1 -47 5 -54 15 -3 4 -19
10 -35 11 -18 3 -28 9 -26 17 3 11 1 11 -9 2 -10 -10 -15 -9 -26 5 -8 9 -12
12 -9 5 5 -8 0 -8 -18 0 -13 7 -22 16 -18 22 3 5 -2 4 -11 -4 -15 -12 -21 -9
-18 11 0 4 -8 5 -19 3 -11 -2 -20 0 -20 6 0 5 -9 9 -21 9 -11 0 -18 4 -15 8 2
4 -4 9 -15 10 -43 4 -49 6 -49 14 0 4 -6 7 -12 6 -7 -2 -12 3 -10 11 2 8 -3
11 -13 8 -17 -7 -47 2 -41 12 3 4 -5 8 -16 8 -12 1 -25 8 -29 15 -5 7 -9 9 -9
4 0 -4 -11 -1 -25 8 -13 9 -30 16 -38 16 -7 0 -23 9 -36 21 -12 11 -28 18 -36
16 -7 -3 -16 1 -19 9 -3 8 -14 14 -24 14 -10 0 -27 8 -38 18 -11 11 -28 18
-38 16 -12 -2 -16 2 -12 12 3 8 2 13 -3 9 -5 -3 -16 1 -24 9 -8 8 -18 12 -22
8 -3 -4 -13 2 -21 12 -8 11 -14 16 -14 11 0 -5 -12 2 -27 16 -17 15 -22 17
-13 5 14 -18 14 -18 -7 -6 -12 8 -19 18 -17 22 3 4 -7 8 -21 8 -15 0 -24 4
-20 10 3 6 -3 10 -14 10 -12 0 -21 3 -21 8 0 4 -14 13 -30 20 -17 8 -27 18
-24 24 4 7 2 8 -4 4 -14 -8 -105 47 -95 58 4 4 0 4 -10 0 -11 -4 -17 -1 -17 7
0 7 -3 9 -7 6 -3 -4 -27 10 -52 30 -25 21 -39 29 -31 18 15 -20 15 -20 -10 0
-14 11 -30 26 -37 33 -6 7 -20 14 -31 15 -11 0 -18 5 -16 9 3 4 -7 13 -21 18
-16 6 -23 14 -19 22 5 8 2 9 -11 5 -11 -5 -22 -1 -30 10 -8 10 -19 18 -27 18
-7 1 -12 6 -11 12 1 6 -4 14 -13 17 -10 4 -13 1 -9 -7 3 -6 -2 -2 -11 11 -9
12 -23 22 -30 22 -8 0 -14 5 -14 12 0 6 -3 9 -6 5 -9 -8 -33 16 -26 27 3 5 0
6 -7 2 -6 -4 -18 0 -27 8 -9 9 -20 13 -26 10 -7 -4 -8 -2 -4 4 4 7 1 12 -9 12
-9 0 -13 5 -10 10 3 6 -1 10 -9 10 -9 0 -16 5 -16 10 0 6 -6 10 -13 10 -7 0
-22 8 -33 18 -10 10 -27 21 -36 25 -10 3 -18 13 -18 22 0 8 -5 15 -11 15 -5 0
-7 -6 -4 -12 4 -7 -2 -3 -13 10 -11 12 -25 22 -32 22 -6 0 -8 5 -5 10 3 5 -1
10 -10 10 -9 0 -13 5 -10 10 4 6 3 10 -2 9 -21 -4 -44 2 -39 10 3 5 -2 15 -11
22 -14 12 -16 12 -8 -1 8 -15 -12 1 -68 55 -17 17 -27 23 -22 15 4 -8 -7 0
-25 17 -18 18 -37 30 -44 26 -6 -3 -8 -3 -4 2 7 8 -15 35 -28 35 -5 0 -19 12
-32 28 -13 15 -20 21 -17 14 6 -11 3 -11 -13 -1 -12 7 -18 17 -15 22 3 4 -4
11 -16 14 -12 3 -21 9 -21 14 0 5 -7 9 -16 9 -8 0 -12 5 -9 10 3 6 -1 10 -10
10 -9 0 -13 5 -10 10 3 5 -3 10 -15 10 -12 0 -19 3 -17 8 3 4 -5 16 -16 27
-11 11 -16 13 -12 5 8 -13 7 -13 -8 -1 -9 7 -17 20 -17 27 0 8 -6 13 -12 11
-7 -1 -12 4 -10 11 1 8 -2 11 -9 7 -12 -8 -51 29 -42 39 4 3 -4 6 -16 6 -12 0
-19 4 -16 10 3 6 -1 10 -10 10 -9 0 -13 4 -10 10 3 5 1 10 -4 10 -6 0 -24 11
-39 24 -15 14 -37 33 -49 44 -13 11 -23 24 -23 30 0 6 -8 9 -19 7 -14 -3 -18
1 -14 16 4 13 0 19 -12 19 -10 0 -28 11 -40 24 -13 14 -26 22 -31 18 -4 -4 -4
-2 -1 4 7 12 -28 46 -37 37 -3 -4 -6 1 -6 11 0 10 -13 21 -31 28 -19 7 -27 13
-19 18 8 5 4 9 -10 13 -12 3 -19 10 -16 15 3 6 -6 13 -19 16 -14 4 -23 11 -19
17 3 6 -4 13 -16 16 -12 3 -19 11 -16 19 3 8 -2 11 -15 9 -11 -2 -17 0 -14 5
3 5 1 11 -5 15 -6 4 -8 11 -5 16 3 5 0 6 -8 3 -8 -3 -20 3 -28 13 -13 17 -13
17 5 3 14 -10 17 -11 12 -2 -4 7 -19 17 -32 22 -13 5 -24 17 -24 26 0 10 -3
15 -6 11 -7 -7 -42 26 -37 36 2 4 -5 7 -17 7 -12 0 -18 4 -15 10 3 5 1 10 -5
10 -6 0 -9 4 -6 9 3 4 -6 13 -20 20 -14 6 -22 16 -19 21 3 6 -1 10 -10 10 -8
0 -18 7 -21 15 -4 8 -10 12 -15 9 -5 -3 -9 -2 -8 3 4 21 -2 33 -16 33 -8 0
-15 4 -15 8 0 5 -9 19 -19 31 -14 16 -21 18 -24 9 -3 -7 -6 -3 -6 10 -1 19
-11 27 -33 23 -4 0 -5 8 -3 19 3 13 -1 17 -11 13 -8 -3 -14 0 -14 7 0 6 -18
29 -40 50 -22 21 -40 44 -40 51 0 7 -3 10 -6 6 -7 -7 -54 38 -54 53 0 5 -5 10
-11 10 -5 0 -7 4 -4 10 3 6 -1 7 -10 4 -9 -4 -15 -2 -13 3 2 5 -9 21 -25 37
-15 15 -24 32 -21 38 4 7 2 8 -5 4 -6 -4 -14 0 -17 8 -3 9 -10 13 -15 10 -5
-3 -9 -2 -8 3 4 21 -2 33 -16 33 -8 0 -15 6 -15 14 0 8 -9 18 -20 21 -11 3
-20 13 -20 21 0 8 -4 14 -10 14 -5 0 -10 6 -10 13 0 17 -46 58 -55 49 -3 -4
-3 1 1 11 4 12 1 17 -10 17 -9 0 -16 7 -16 15 0 8 -4 15 -10 15 -5 0 -10 7
-10 15 0 8 -7 15 -15 15 -8 0 -15 4 -15 10 0 5 -16 26 -35 46 -20 20 -42 49
-51 65 -8 16 -21 29 -29 29 -9 0 -12 6 -9 15 4 9 0 15 -10 15 -9 0 -16 8 -16
20 0 11 -6 20 -14 20 -8 0 -18 9 -21 20 -3 11 -11 20 -16 20 -6 0 -7 5 -4 10
3 6 0 10 -8 10 -7 0 -19 11 -25 25 -6 14 -17 25 -23 25 -8 0 -7 6 2 17 10 11
10 14 2 9 -22 -13 -14 1 22 38 19 20 36 40 37 44 2 4 6 6 10 5 5 -2 7 0 6 5
-4 14 23 53 33 47 5 -4 9 -3 8 2 -4 21 2 34 13 27 8 -5 9 -2 4 12 -4 10 -4 15
0 11 4 -4 15 4 24 19 10 14 21 25 26 24 5 -1 10 4 13 11 2 7 -2 9 -10 5 -8 -4
-5 0 5 8 11 9 25 16 30 16 6 0 4 5 -4 10 -8 5 -10 10 -4 10 13 0 61 40 48 40
-5 0 -1 5 9 11 9 6 15 14 12 20 -6 8 8 13 28 10 5 -1 6 3 3 8 -3 5 11 27 33
50 21 22 37 42 34 45 -2 2 5 7 16 11 12 3 19 11 16 16 -4 5 -1 9 5 9 6 0 8 5
5 10 -3 6 2 10 11 10 10 0 15 3 11 6 -3 3 12 23 34 45 21 21 39 44 39 50 0 5
5 7 10 4 6 -3 10 -2 10 4 0 14 82 97 93 93 5 -1 6 1 3 6 -6 10 94 118 106 115
4 -2 4 5 1 15 -3 9 -3 14 1 11 9 -8 76 54 76 70 0 7 5 9 10 6 9 -6 14 7 11 27
0 4 7 4 16 1 9 -4 14 -2 11 3 -7 11 17 35 26 27 3 -4 6 -1 6 6 0 6 15 26 33
44 17 17 31 35 30 39 -2 4 0 7 5 7 20 -3 32 2 27 12 -4 6 3 13 15 16 12 3 19
11 16 19 -3 8 0 13 7 11 7 -1 11 4 9 11 -1 8 2 11 8 7 5 -3 13 1 16 9 3 9 13
16 21 16 8 0 11 5 8 10 -3 6 1 10 10 10 9 0 14 3 12 8 -5 7 15 30 30 35 5 1 7
5 6 9 -2 4 11 15 27 25 17 9 33 26 36 36 5 16 8 17 15 6 7 -12 9 -11 10 1 1 8
1 19 0 23 -1 5 2 6 7 3 4 -2 23 13 41 34 19 22 36 38 40 36 3 -2 15 6 26 17
12 11 14 17 5 13 -8 -4 -6 -1 4 8 10 8 23 13 27 10 5 -3 9 4 9 15 0 13 5 18
13 15 7 -2 19 7 27 21 7 14 15 23 18 21 2 -3 19 11 38 30 18 20 38 33 44 29 6
-4 7 1 3 11 -4 12 -3 15 5 10 7 -4 12 -1 12 9 0 9 5 13 10 10 6 -3 10 -1 10 5
0 7 7 10 14 7 9 -4 13 -1 10 6 -2 7 6 17 18 22 13 6 22 16 20 23 -1 7 5 12 13
12 8 0 15 5 15 11 0 5 4 8 9 4 5 -3 12 4 16 15 4 11 11 18 16 15 5 -4 9 1 9 9
0 9 3 15 8 15 20 -3 32 2 30 14 -2 6 3 11 10 9 6 -1 12 3 12 8 0 6 11 16 25
22 13 6 27 19 30 29 4 11 12 16 21 12 8 -3 14 1 14 11 0 9 7 16 15 16 8 0 15
5 15 10 0 6 7 10 16 10 8 0 12 5 9 10 -6 9 8 14 28 11 5 -1 6 2 3 7 -5 9 22
36 39 39 5 1 12 10 16 20 5 12 8 13 8 3 1 -10 6 -7 17 8 8 12 20 19 26 16 6
-4 9 -3 6 2 -3 5 0 15 8 22 8 7 14 10 14 5 0 -4 6 1 13 12 8 10 19 15 26 11 6
-4 11 -4 10 1 -3 17 1 33 9 32 21 -4 32 2 26 13 -5 8 -2 9 9 5 10 -4 16 -2 14
6 -1 7 4 11 11 9 6 -1 12 5 12 14 0 8 4 13 9 10 5 -3 23 8 40 25 17 16 36 27
41 24 6 -3 10 1 10 9 0 9 7 16 15 16 8 0 15 5 15 10 0 6 5 10 11 10 6 0 16 6
24 13 33 32 56 47 71 47 8 0 12 5 9 10 -3 6 -1 10 5 10 10 0 22 8 55 38 8 7
15 10 15 7 0 -4 9 3 21 16 11 13 18 17 14 9 -4 -8 3 -4 14 10 11 14 21 21 21
15 0 -5 4 -5 8 2 4 6 14 13 22 15 8 2 23 13 33 26 11 13 25 21 31 19 7 -3 18
4 24 14 7 10 18 19 26 19 8 0 17 7 20 16 3 8 10 12 16 9 5 -3 10 -1 10 5 0 7
7 9 17 6 10 -4 14 -4 10 0 -7 8 33 40 46 36 4 -1 7 2 7 8 0 5 7 10 16 10 8 0
12 5 9 10 -4 6 -3 10 2 9 22 -4 43 2 38 11 -3 6 -1 11 4 11 32 4 36 6 34 15
-1 5 8 11 20 11 12 1 27 9 33 18 7 9 21 17 32 18 11 0 19 4 16 8 -5 9 36 24
51 20 6 -1 7 1 3 5 -4 4 -3 13 3 21 10 11 15 11 27 1 13 -10 14 -10 8 0 -4 7
-1 12 9 12 9 0 13 5 10 10 -5 9 8 12 32 9 3 0 10 6 15 15 5 9 13 14 19 11 5
-4 9 -1 9 6 0 7 3 10 6 6 4 -3 13 1 21 9 8 8 18 12 23 9 4 -3 11 2 14 11 3 8
10 13 15 10 5 -3 12 1 15 10 3 8 10 13 15 10 5 -4 16 0 24 8 10 10 18 11 25 4
6 -6 12 -6 17 3 6 8 4 10 -6 4 -10 -6 -11 -5 -3 4 6 7 21 13 33 14 11 1 21 7
21 15 0 7 4 11 9 7 5 -3 17 2 25 11 12 11 16 12 16 2 0 -8 5 -6 11 5 6 9 14
15 20 12 5 -4 9 -2 9 4 0 5 9 8 20 6 11 -2 19 1 17 8 -1 7 6 11 16 9 9 -2 17
2 17 8 0 5 11 10 25 10 16 0 25 6 25 16 0 8 5 12 10 9 6 -4 17 -1 25 5 8 7 22
10 30 6 9 -3 13 -2 10 4 -3 6 2 13 12 16 10 3 25 9 33 13 8 4 36 14 62 21 26
8 44 18 42 22 -3 5 -2 8 3 7 4 -1 21 -1 37 0 20 1 27 5 23 15 -4 10 0 12 14 9
10 -3 25 0 33 6 8 7 23 11 33 9 10 -2 17 2 16 8 -1 6 4 11 12 11 8 0 12 -5 9
-11 -3 -6 2 -2 10 8 12 15 16 16 17 5 0 -10 2 -10 6 -1 2 6 9 9 15 6 6 -4 14
-1 18 5 4 7 17 13 28 14 12 1 22 6 22 12 0 5 4 4 9 -4 8 -12 13 -11 35 6 14
11 37 19 51 18 14 -2 25 2 25 8 0 8 3 8 8 2 4 -5 13 -11 21 -13 11 -2 12 0 3
11 -9 11 -8 13 6 12 9 0 24 -5 31 -10 9 -5 12 -4 8 2 -9 15 39 23 54 9 9 -8
10 -8 6 0 -4 7 0 15 9 18 10 4 13 2 8 -7 -6 -9 -4 -9 7 -1 14 12 17 12 81 16
20 2 40 6 44 11 4 4 11 2 15 -4 4 -7 9 -8 13 -1z m-5590 -4807 c3 -5 -2 -15
-12 -22 -15 -12 -16 -12 -5 2 7 9 10 19 6 22 -3 4 -4 7 0 7 3 0 8 -4 11 -9z
m710 -1909 c3 -5 -1 -9 -9 -9 -8 0 -12 4 -9 9 3 4 7 8 9 8 2 0 6 -4 9 -8z"/>
<path d="M4218 6064 c-2 -1 -15 -5 -28 -7 -102 -17 -181 -110 -185 -215 -1
-32 2 -71 7 -88 24 -91 129 -166 228 -166 57 1 119 26 163 67 l28 26 19 -23
c11 -13 19 -28 20 -35 0 -6 4 -13 8 -15 5 -1 35 -39 68 -83 32 -44 62 -81 67
-83 4 -2 7 -8 7 -13 0 -10 91 -132 103 -137 4 -2 7 -8 7 -14 0 -5 7 -16 15
-25 14 -14 14 -18 -2 -43 -35 -54 -123 -164 -123 -153 0 7 -6 18 -12 25 -43
45 -132 176 -140 207 -22 80 -63 130 -136 163 -120 55 -264 -6 -315 -133 -22
-53 -14 -150 17 -203 78 -134 268 -160 370 -50 l24 26 57 -75 c33 -45 54 -81
49 -88 -4 -6 -28 -40 -55 -75 l-48 -64 -33 28 c-18 14 -35 29 -38 33 -26 31
-154 39 -215 13 -32 -13 -75 -50 -111 -96 -39 -49 -39 -175 -1 -241 38 -63 83
-98 149 -113 111 -25 222 29 269 131 10 22 19 47 19 56 0 8 10 29 23 46 12 16
31 43 42 58 11 15 27 35 35 44 8 9 23 28 33 43 16 25 47 30 47 7 0 -8 33 -55
90 -128 11 -13 16 -29 13 -35 -8 -14 -196 -270 -203 -276 -3 -3 -17 -21 -30
-40 -13 -19 -30 -41 -37 -48 -7 -7 -13 -16 -13 -20 -1 -4 -10 -18 -20 -31
l-20 -23 -27 26 c-94 94 -247 89 -341 -12 -18 -19 -35 -45 -38 -58 -4 -13 -10
-24 -14 -24 -12 0 -3 -164 9 -168 6 -2 11 -10 11 -18 0 -24 59 -81 108 -104
130 -62 284 10 326 150 9 29 44 88 88 147 87 116 83 111 109 143 11 13 29 39
40 57 11 18 25 33 30 33 6 0 8 4 5 8 -3 5 3 16 12 24 9 9 33 39 52 67 32 46
60 66 60 42 0 -5 6 -16 13 -23 42 -43 126 -173 137 -212 23 -84 121 -163 205
-166 22 -1 42 -1 45 0 3 1 12 3 21 5 83 16 166 91 177 160 1 11 7 21 12 23 5
2 6 10 3 18 -3 7 2 17 11 20 9 3 16 10 16 16 0 5 35 51 78 102 42 50 91 109
107 131 17 21 46 57 65 80 19 23 52 63 73 89 l38 46 25 -29 c79 -94 252 -93
337 2 45 50 60 87 63 156 5 104 -54 194 -151 230 -87 33 -188 10 -249 -56 -21
-22 -26 -24 -38 -12 -12 12 -83 99 -115 139 -12 16 -163 200 -191 235 -55 66
-81 103 -76 108 9 8 -36 94 -64 123 -69 68 -187 88 -270 45 -69 -35 -102 -76
-126 -153 -12 -42 -60 -118 -78 -126 -5 -2 -8 -7 -8 -12 0 -5 -9 -19 -20 -32
-11 -12 -28 -34 -38 -46 l-18 -24 -64 87 c-35 48 -69 93 -77 100 -7 8 -13 16
-13 20 0 5 -15 26 -88 120 -4 6 -18 26 -32 45 -13 19 -27 37 -30 40 -23 20
-70 98 -70 116 0 13 -4 26 -10 29 -5 3 -10 13 -10 20 0 30 -62 92 -115 115
-37 17 -110 32 -117 24z m54 -143 c46 -3 77 -77 58 -135 -9 -28 -20 -38 -54
-51 -39 -15 -46 -15 -80 -1 -36 15 -58 48 -61 91 -4 50 51 105 99 100 12 -1
29 -3 38 -4z m1034 -323 c49 -48 31 -137 -32 -164 -95 -40 -186 82 -117 158
39 44 109 47 149 6z m-241 -237 c3 -10 13 -22 23 -25 9 -4 28 -13 42 -21 14
-7 37 -15 52 -17 15 -2 30 -7 34 -10 3 -4 16 -3 28 1 11 4 31 6 44 5 12 0 22
3 22 7 0 5 9 9 20 9 11 0 20 5 20 10 0 6 6 10 14 10 7 0 22 11 32 25 10 14 24
25 30 25 6 0 54 -53 105 -117 51 -65 96 -120 99 -123 22 -21 100 -120 100
-127 0 -5 -59 -8 -132 -8 l-132 0 -24 45 c-73 137 -265 166 -373 57 l-26 -27
-21 28 c-11 15 -36 48 -55 73 -39 52 -40 50 30 142 47 61 58 68 68 38z m-760
-51 c72 -68 13 -189 -85 -174 -43 7 -59 20 -76 60 -41 98 84 186 161 114z
m609 -283 l66 -89 -37 -51 c-21 -29 -43 -59 -50 -67 -7 -8 -20 -26 -31 -39
l-18 -24 -67 91 -66 91 31 43 c17 24 34 45 37 48 3 3 19 24 35 48 16 23 30 41
31 40 1 -2 32 -43 69 -91z m386 -15 c36 -35 44 -75 23 -120 -37 -77 -149 -74
-182 6 -40 98 83 186 159 114z m819 -1 c28 -26 32 -38 34 -83 1 -32 -40 -87
-67 -89 -6 -1 -23 -2 -38 -3 -18 -2 -39 7 -60 24 -28 24 -33 34 -33 73 0 94
97 140 164 78z m-391 -159 c-8 -9 -43 -53 -79 -97 -35 -44 -66 -82 -69 -85 -3
-3 -34 -41 -69 -85 -36 -44 -68 -84 -73 -89 -5 -6 -21 2 -40 21 -18 17 -47 38
-64 46 -43 22 -122 27 -161 11 -18 -7 -33 -10 -33 -7 0 7 -72 -47 -86 -65 -8
-12 -20 -1 -60 54 -67 92 -66 90 -52 106 7 7 32 39 56 70 28 39 47 55 57 52 8
-4 15 -11 15 -18 1 -20 102 -63 156 -65 92 -4 190 56 223 137 l13 30 140 0
c130 1 139 0 126 -16z m-1419 -137 c36 -35 36 -102 2 -139 -29 -30 -84 -44
-106 -26 -8 7 -15 9 -15 5 0 -20 -41 32 -50 63 -12 44 10 96 48 116 37 20 91
11 121 -19z m965 -275 c52 -19 76 -93 47 -143 -27 -48 -85 -66 -132 -41 -114
58 -35 230 85 184z m-971 -311 c27 -23 32 -33 32 -73 0 -65 -37 -101 -101
-100 -48 1 -76 21 -94 69 -13 34 8 97 38 110 12 5 22 12 22 15 0 3 16 6 35 6
24 0 46 -9 68 -27z"/>
<path d="M4225 2020 c-3 -6 1 -7 9 -4 18 7 21 14 7 14 -6 0 -13 -4 -16 -10z"/>
</g>
</svg>
