<svg width="426" height="431" xmlns="http://www.w3.org/2000/svg" xmlns:xlink="http://www.w3.org/1999/xlink" xml:space="preserve" overflow="hidden"><g transform="translate(-1228 -609)"><g><path d="M1243 709.5C1243 663.937 1279.94 627 1325.5 627 1371.06 627 1408 663.937 1408 709.5 1408 755.063 1371.06 792 1325.5 792 1279.94 792 1243 755.063 1243 709.5Z" stroke="#FFFFFF" stroke-width="27.5" stroke-linecap="butt" stroke-linejoin="miter" stroke-miterlimit="8" stroke-opacity="1" fill="#2093B0" fill-rule="evenodd" fill-opacity="1"/><path d="M1243 941.5C1243 895.937 1279.94 859 1325.5 859 1371.06 859 1408 895.937 1408 941.5 1408 987.064 1371.06 1024 1325.5 1024 1279.94 1024 1243 987.064 1243 941.5Z" stroke="#FFFFFF" stroke-width="27.5" stroke-linecap="butt" stroke-linejoin="miter" stroke-miterlimit="8" stroke-opacity="1" fill="#2093B0" fill-rule="evenodd" fill-opacity="1"/><path d="M1472 829.5C1472 783.936 1508.94 747 1554.5 747 1600.06 747 1637 783.936 1637 829.5 1637 875.063 1600.06 912 1554.5 912 1508.94 912 1472 875.063 1472 829.5Z" stroke="#FFFFFF" stroke-width="27.5" stroke-linecap="butt" stroke-linejoin="miter" stroke-miterlimit="8" stroke-opacity="1" fill="#2093B0" fill-rule="evenodd" fill-opacity="1"/><path d="M1408 710 1496.07 770.959" stroke="#83B2A8" stroke-width="27.5" stroke-linecap="butt" stroke-linejoin="miter" stroke-miterlimit="8" stroke-opacity="1" fill="none" fill-rule="evenodd"/><path d="M0 0 88.0722 53.9873" stroke="#83B2A8" stroke-width="27.5" stroke-linecap="butt" stroke-linejoin="miter" stroke-miterlimit="8" stroke-opacity="1" fill="none" fill-rule="evenodd" transform="matrix(1 0 0 -1 1408 941.987)"/></g></g></svg>