<svg id="Layer_1" enable-background="new 0 0 100 100" viewBox="0 0 100 100" xmlns="http://www.w3.org/2000/svg"><path d="m2.671 87.2779999c0 5.6429977 4.5980001 10.2220001 10.2220006 10.2220001 4.9970007 0 9.1390009-3.5909958 10.0319986-8.3219986h33.5920029c.8930016 4.7310028 5.0350037 8.3219986 10.0319939 8.3219986 5.6240005 0 10.2030029-4.5790024 10.2030029-10.2220001 0-2.5270081-.9689941-4.826004-2.489006-6.6119995l8.0370102-9.2340012c1.4439926.7789993 3.0589981 1.272995 4.8069992 1.272995 5.6429977 0 10.2220001-4.5790024 10.2220001-10.2220001 0-4.9970055-3.5909958-9.1389999-8.3220062-10.0320015v-29.6969929c4.7310104-.8929996 8.3220062-5.0349998 8.3220062-10.0320015 0-5.6239982-4.5790024-10.2219982-10.2220001-10.2219982-4.9780045 0-9.1200027 3.6100001-10.0130005 8.3220005h-33.4780007c-.8930015-4.7120004-5.0349998-8.3220005-10.0319977-8.3220005-5.6240005 0-10.222002 4.598-10.222002 10.2220001 0 2.4700003.9310017 4.7120018 2.3939991 6.4980011l-8.1130009 9.3289967c-1.4250011-.7599983-3.0210009-1.2349987-4.750001-1.2349987-5.6240001 0-10.2220001 4.5789986-10.2220001 10.2219963 0 4.9780006 3.6100001 9.1389999 8.3220005 10.0320015v29.6780052c-4.7119998.8929977-8.321999 5.0540009-8.321999 10.0319977zm29.0130019-64.5240002v12.8820019h-8.7779999c-.342001-1.7860031-1.1590004-3.4009972-2.2989998-4.7310009l8.0559998-9.2719994c.9499989.5129986 1.9569969.9119988 3.0209999 1.1209984zm11.9319992-8.132h33.4780083c.3419952 1.7670002 1.1399918 3.3440018 2.260994 4.6550007l-8.0749969 9.2530003c-1.4250031-.7599983-3.0210037-1.2159977-4.7310104-1.2159977-4.9969978 0-9.1389999 3.5909977-10.0319939 8.3220024h-21.033001v-12.8820019c4.1230011-.7790031 7.3529968-4.0090027 8.1319999-8.1320038zm41.5909996 8.132v29.6970005c-4.1040039.7790031-7.3339996 4.0090027-8.112999 8.132h-8.6640091v-13.0150032c4.7310028-.8929977 8.3030014-5.053997 8.3030014-10.0320015 0-2.5459976-.9689941-4.8449974-2.489006-6.6309967l8.056015-9.2149982c.911995.4750003 1.8810044.8740005 2.9069977 1.0639991zm-16.7580032 54.4920025v-12.862999h8.6640015c.322998 1.7669983 1.1399994 3.3439941 2.2420044 4.6549988l-8.0560074 9.2529984c-.8929901-.4749985-1.8429947-.8550034-2.8499985-1.0449982zm-11.9319954 8.1319962h-33.5920029c-.3419991-1.7859955-1.1589985-3.3819962-2.2989998-4.711998l8.132-9.2340012c1.4440002.7789993 3.0780029 1.272995 4.826004 1.272995 4.9970016 0 9.1389961-3.5909958 10.0320015-8.3219986h21.0329971v12.862999c-4.1229972.7790069-7.3530006 4.0279998-8.1319999 8.1320038zm0-45.9419976c.7789993 4.1040001 4.0090027 7.3530006 8.1130028 8.132v13.0149994h-21.0140038c-.7790031-4.1040001-4.0090027-7.3529968-8.1130028-8.1320038v-13.0149994zm-33.5920029 0h8.7779999v13.0149994c-4.7310009.8930016-8.3220005 5.0350037-8.3220005 10.0319977 0 2.5079994.9499969 4.769001 2.4510002 6.5550041l-8.151001 9.2529984c-.8929996-.4749985-1.8430004-.8550034-2.8500004-1.0449982v-29.6780052c4.085003-.7789993 7.3150025-4.0279961 8.0940018-8.1319962z" fill="#8b72b6"/></svg>