<svg id="Capa_1" enable-background="new 0 0 512 512" viewBox="0 0 512 512" xmlns="http://www.w3.org/2000/svg"><g><path d="m324.486 203.709c-4.267 0-7.726-3.459-7.726-7.726v-112.422c0-11.212-9.122-20.335-20.335-20.335s-20.336 9.123-20.336 20.335v14.45c0 18.443-15.004 33.447-33.446 33.447-11.577 0-22.165-5.853-28.323-15.656l-47.458-75.556c-5.986-9.53-16.28-15.22-27.535-15.22-17.93 0-32.516 14.587-32.516 32.516v84.806c0 4.268-3.459 7.726-7.726 7.726s-7.726-3.459-7.726-7.726v-84.807c0-26.45 21.519-47.969 47.969-47.969 16.604 0 31.789 8.394 40.62 22.454l47.458 75.556c3.312 5.274 9.009 8.423 15.237 8.423 9.922 0 17.993-8.072 17.993-17.994v-14.45c0-19.733 16.054-35.788 35.788-35.788 19.733 0 35.788 16.054 35.788 35.788v112.422c0 4.267-3.459 7.726-7.726 7.726z" fill="#5de1c4"/><path d="m57.042 300.99h84.086v112.931h-84.086z" fill="#d8ecfe"/><path d="m68.819 142.347h60.532v158.644h-60.532z" fill="#d8ecfe"/><path d="m28.829 466.087v-52.785c0-7.852 6.365-14.217 14.217-14.217h112.079c7.852 0 14.217 6.365 14.217 14.217v52.785z" fill="#fdb441"/><path d="m155.124 399.085h-36.555c7.852 0 14.217 6.365 14.217 14.217v52.785h36.555v-52.785c0-7.853-6.365-14.217-14.217-14.217z" fill="#fe9738"/><path d="m512 474.977v17.164c0 5.681-4.605 10.287-10.287 10.287h-493.387c-4.598 0-8.326-3.728-8.326-8.326v-41.384c0-4.598 3.728-8.326 8.326-8.326h435.539c2.602 0 5.184.456 7.629 1.346l53.74 19.573c4.062 1.48 6.766 5.342 6.766 9.666z" fill="#678d98"/><path d="m252.608 195.983c-4.29 0-8.328-1.956-10.983-5.32l-54.16-68.561c-7.288-9.226-18.399-14.608-30.157-14.608h-73.35v70.013h75.656c5.02 0 9.763 2.298 12.875 6.237l37.127 46.994c7.585 9.598 19.151 15.204 31.392 15.204h83.478v-49.959z" fill="#d8ecfe"/><path d="m384.124 153.86v173.786c0 24.796 20.101 44.897 44.897 44.897s44.899-20.101 44.899-44.897v-173.786z" fill="#62dbfb"/><path d="m443.825 153.86v173.786c0 19.517-12.457 36.117-29.851 42.305 4.705 1.674 9.768 2.593 15.047 2.593 24.796 0 44.899-20.101 44.899-44.897v-173.787z" fill="#01d0fb"/><path d="m473.92 279.283v48.363c0 24.794-20.099 44.897-44.899 44.897-24.794 0-44.897-20.103-44.897-44.897v-53.955c5.563-2.349 11.894-4.354 22.718-4.354 26.067 0 26.067 11.627 52.129 11.627 6.237-.001 10.985-.669 14.949-1.681z" fill="#fe76a8"/><path d="m429.021 372.543c24.8 0 44.899-20.103 44.899-44.897v-48.363c-3.965 1.012-8.712 1.68-14.95 1.68-6.345 0-11.139-.692-15.146-1.735v48.418c0 19.517-12.457 36.117-29.851 42.305 4.706 1.673 9.769 2.592 15.048 2.592z" fill="#fe5694"/><path d="m471.691 124.565h-85.338c-9.821 0-17.782 7.961-17.782 17.782 0 9.82 7.961 17.782 17.782 17.782h85.338c9.821 0 17.782-7.961 17.782-17.781 0-9.822-7.961-17.783-17.782-17.783z" fill="#d8ecfe"/><path d="m471.691 124.565h-36.209c9.821 0 17.782 7.962 17.782 17.782s-7.961 17.781-17.782 17.781h36.209c9.821 0 17.782-7.961 17.782-17.781 0-9.821-7.961-17.782-17.782-17.782z" fill="#bddbff"/><path d="m334.052 200.566v40.802h150.242c7.624 0 13.805-6.181 13.805-13.805v-13.191c0-7.624-6.181-13.805-13.805-13.805h-150.242z" fill="#d8ecfe"/><path d="m484.294 200.566h-43.146c7.624 0 13.805 6.181 13.805 13.805v13.191c0 7.624-6.181 13.805-13.805 13.805h43.146c7.625 0 13.805-6.181 13.805-13.805v-13.191c0-7.625-6.181-13.805-13.805-13.805z" fill="#bddbff"/><path d="m283.634 178.606v16.208c0 2.987 1.826 5.671 4.604 6.767l5.396 2.131c2.778 1.097 4.604 3.781 4.604 6.767v20.973c0 2.987-1.826 5.671-4.604 6.767l-5.396 2.131c-2.778 1.097-4.604 3.781-4.604 6.767v16.208c0 4.018 3.258 7.276 7.276 7.276h40.269c6.558 0 11.874-5.316 11.874-11.874v-75.524c0-6.558-5.316-11.874-11.874-11.874h-40.269c-4.019.001-7.276 3.259-7.276 7.277z" fill="#678d98"/><ellipse cx="99.085" cy="143.019" fill="#fe76a8" rx="54.244" ry="54.244" transform="matrix(.997 -.081 .081 .997 -11.202 8.449)"/><path d="m99.085 88.775c-4.122 0-8.131.475-11.989 1.346 24.186 5.459 42.255 27.062 42.255 52.897 0 25.837-18.069 47.439-42.255 52.898 3.859.871 7.867 1.346 11.989 1.346 29.958 0 54.244-24.284 54.244-54.244 0-29.957-24.286-54.243-54.244-54.243z" fill="#fe5694"/><ellipse cx="99.085" cy="143.019" fill="#678d98" rx="18.45" ry="18.45" transform="matrix(.998 -.071 .071 .998 -9.889 7.384)"/><ellipse cx="99.085" cy="303.746" fill="#fe76a8" rx="54.244" ry="54.244" transform="matrix(.998 -.058 .058 .998 -17.511 6.282)"/><path d="m99.085 249.503c-4.954 0-9.747.677-14.306 1.921 23.014 6.279 39.938 27.319 39.938 52.323 0 25.005-16.924 46.045-39.938 52.323 4.559 1.244 9.352 1.921 14.306 1.921 29.958 0 54.244-24.285 54.244-54.244 0-29.958-24.286-54.244-54.244-54.244z" fill="#fe5694"/><ellipse cx="99.085" cy="303.747" fill="#678d98" rx="18.45" ry="18.45" transform="matrix(.998 -.071 .071 .998 -21.283 7.788)"/></g><g/><g/><g/><g/><g/><g/><g/><g/><g/><g/><g/><g/><g/><g/><g/></svg>