<svg id="Capa_1" enable-background="new 0 0 512 512" height="512" viewBox="0 0 512 512" width="512" xmlns="http://www.w3.org/2000/svg"><g><circle cx="455.513" cy="208.199" fill="#8ac9fe" r="48.806"/><path d="m465.303 256.01c-17.686 3.622-35.085-2.809-46.289-15.392 9.795 5.391 21.493 7.459 33.305 5.041 26.401-5.402 43.429-31.196 38.017-57.596-1.78-8.725-5.793-16.431-11.318-22.635 12.11 6.657 21.318 18.386 24.312 32.986 5.402 26.4-11.626 52.194-38.027 57.596z" fill="#60b7ff"/><circle cx="56.476" cy="48.806" fill="#8ac9fe" r="48.806"/><path d="m105.28 48.805c0 26.957-21.853 48.81-48.799 48.81-14.487 0-27.502-6.307-36.432-16.339 6.955 3.807 14.939 5.978 23.438 5.978 26.957 0 48.81-21.843 48.81-48.799 0-12.46-4.671-23.829-12.357-32.451 15.102 8.282 25.34 24.353 25.34 42.801z" fill="#60b7ff"/><circle cx="365.151" cy="181.622" fill="#fe7ab6" r="64.025"/><path d="m429.179 181.622c0 35.363-28.664 64.027-64.027 64.027-18.077 0-34.395-7.49-46.032-19.538 9.641 5.823 20.948 9.178 33.047 9.178 35.352 0 64.017-28.665 64.017-64.017 0-17.316-6.873-33.016-18.036-44.53 18.592 11.205 31.031 31.587 31.031 54.88z" fill="#fe5ca7"/><circle cx="62.829" cy="359.477" fill="#fdb441" r="48.806"/><path d="m82.305 404.23c-19.857 8.642-42.338 3.035-55.971-12.326 12.789 7.007 28.572 8.242 42.986 1.965 24.714-10.752 36.031-39.509 25.269-64.222-2.119-4.867-4.928-9.209-8.272-12.964 9.147 5.031 16.771 13.005 21.257 23.314 10.762 24.713-.545 53.47-25.269 64.233z" fill="#fea613"/><circle cx="358.577" cy="359.477" fill="#fdb441" r="64.025"/><path d="m422.605 359.474c0 35.363-28.664 64.027-64.027 64.027-18.067 0-34.375-7.48-46.011-19.518 9.641 5.823 20.948 9.167 33.027 9.167 35.352 0 64.017-28.665 64.017-64.027 0-17.296-6.842-32.976-17.985-44.489 18.571 11.205 30.979 31.577 30.979 54.84z" fill="#fea613"/><circle cx="105.797" cy="116.652" fill="#fdb441" r="82.965"/><path d="m188.762 116.649c0 45.826-37.142 82.968-82.968 82.968-22.522 0-42.935-8.972-57.884-23.551 12.943 8.354 28.356 13.201 44.9 13.201 45.816 0 82.968-37.153 82.968-82.969 0-23.273-9.589-44.303-25.022-59.366 22.872 14.755 38.006 40.466 38.006 69.717z" fill="#fea613"/><circle cx="125.525" cy="429.014" fill="#8ac9fe" r="82.965"/><path d="m158.637 505.08c-31.875 13.88-67.7 6.163-91.117-16.729 22.543 14.538 51.701 17.892 78.133 6.379 42.009-18.293 61.249-67.175 42.956-109.184-4.424-10.155-10.628-18.972-18.098-26.257 13.303 8.57 24.302 21.02 31.082 36.607 18.293 42.019-.937 90.901-42.956 109.184z" fill="#60b7ff"/><circle cx="278.101" cy="268.671" fill="#a2aee6" r="87.049"/><path d="m365.153 268.676c0 48.069-38.974 87.043-87.053 87.043-23.479 0-44.797-9.301-60.446-24.415 13.653 8.9 29.961 14.065 47.462 14.065 48.079 0 87.053-38.974 87.053-87.053 0-24.58-10.186-46.783-26.576-62.607 23.818 15.524 39.56 42.409 39.56 72.967z" fill="#8795de"/><circle cx="179.172" cy="268.671" fill="#fe7ab6" r="48.806"/><path d="m188.958 316.487c-17.676 3.611-35.074-2.819-46.279-15.392 9.795 5.391 21.483 7.459 33.294 5.041 26.411-5.412 43.429-31.196 38.027-57.607-1.79-8.725-5.803-16.431-11.318-22.635 12.11 6.667 21.318 18.396 24.302 32.986 5.413 26.412-11.615 52.195-38.026 57.607z" fill="#fe5ca7"/><circle cx="217.488" cy="458.366" fill="#fe7ab6" r="48.806"/><path d="m236.965 503.115c-19.857 8.653-42.328 3.035-55.971-12.326 12.789 7.017 28.572 8.241 42.986 1.976 24.714-10.762 36.031-39.519 25.269-64.233-2.119-4.856-4.928-9.198-8.272-12.953 9.147 5.01 16.771 12.995 21.257 23.304 10.762 24.713-.555 53.47-25.269 64.232z" fill="#fe5ca7"/><circle cx="331.229" cy="213.026" fill="#8ac9fe" r="48.806"/><path d="m341.015 260.835c-17.676 3.622-35.074-2.809-46.268-15.382 9.795 5.381 21.473 7.449 33.284 5.031 26.401-5.402 43.429-31.196 38.027-57.597-1.79-8.725-5.803-16.431-11.318-22.635 12.11 6.667 21.318 18.386 24.302 32.986 5.402 26.402-11.616 52.196-38.027 57.597z" fill="#60b7ff"/><circle cx="380.044" cy="93.008" fill="#fdb441" r="40.585"/><path d="m388.179 132.771c-15.197 3.118-30.156-2.716-39.406-13.89 7.881 3.982 17.1 5.432 26.421 3.529 21.956-4.486 36.113-25.938 31.628-47.894-1.379-6.76-4.373-12.779-8.509-17.748 10.7 5.391 18.911 15.454 21.493 28.098 4.497 21.957-9.661 43.409-31.627 47.905z" fill="#fea613"/></g></svg>