<?xml version="1.0" encoding="UTF-8" standalone="no"?>
<svg
   xmlns:dc="http://purl.org/dc/elements/1.1/"
   xmlns:cc="http://creativecommons.org/ns#"
   xmlns:rdf="http://www.w3.org/1999/02/22-rdf-syntax-ns#"
   xmlns:svg="http://www.w3.org/2000/svg"
   xmlns="http://www.w3.org/2000/svg"
   xmlns:sodipodi="http://sodipodi.sourceforge.net/DTD/sodipodi-0.dtd"
   xmlns:inkscape="http://www.inkscape.org/namespaces/inkscape"
   width="433.39062"
   zoomAndPan="magnify"
   viewBox="0 0 325.04297 374.99608"
   height="499.99478"
   preserveAspectRatio="xMidYMid meet"
   version="1.0"
   id="svg178"
   sodipodi:docname="SciFM24_logo.svg"
   inkscape:version="0.92.3 (2405546, 2018-03-11)"
   inkscape:export-filename="C:\Users\vancho\Documents\Events\SciFM24_logo.png"
   inkscape:export-xdpi="300"
   inkscape:export-ydpi="300">
  <metadata
     id="metadata182">
    <rdf:RDF>
      <cc:Work
         rdf:about="">
        <dc:format>image/svg+xml</dc:format>
        <dc:type
           rdf:resource="http://purl.org/dc/dcmitype/StillImage" />
        <dc:title></dc:title>
      </cc:Work>
    </rdf:RDF>
  </metadata>
  <sodipodi:namedview
     pagecolor="#ffffff"
     bordercolor="#666666"
     borderopacity="1"
     objecttolerance="10"
     gridtolerance="10"
     guidetolerance="10"
     inkscape:pageopacity="0"
     inkscape:pageshadow="2"
     inkscape:window-width="2560"
     inkscape:window-height="1475"
     id="namedview180"
     showgrid="false"
     fit-margin-top="0"
     fit-margin-left="0"
     fit-margin-right="0"
     fit-margin-bottom="0"
     inkscape:zoom="1.888"
     inkscape:cx="364.86004"
     inkscape:cy="261.51868"
     inkscape:window-x="-13"
     inkscape:window-y="-13"
     inkscape:window-maximized="1"
     inkscape:current-layer="svg178" />
  <defs
     id="defs46">
    <g
       id="g2" />
    <clipPath
       id="a2a5e9e4d9">
      <path
         d="M 25,0 H 350 V 375 H 25 Z m 0,0"
         id="path4"
         inkscape:connector-curvature="0"
         style="clip-rule:nonzero" />
    </clipPath>
    <clipPath
       id="aecdeb4eaf">
      <path
         d="M 348.87109,-0.00390625 350.0625,373.66016 25.851562,374.69141 24.664062,1.027344 Z m 0,0"
         id="path7"
         inkscape:connector-curvature="0"
         style="clip-rule:nonzero" />
    </clipPath>
    <clipPath
       id="69294cffe6">
      <path
         d="M 348.87109,-0.00390625 350.0625,373.66016 25.851562,374.69141 24.664062,1.027344 Z m 0,0"
         id="path10"
         inkscape:connector-curvature="0"
         style="clip-rule:nonzero" />
    </clipPath>
    <clipPath
       id="5b00fdb751">
      <path
         d="M 36,13 H 339 V 362 H 36 Z m 0,0"
         id="path13"
         inkscape:connector-curvature="0"
         style="clip-rule:nonzero" />
    </clipPath>
    <clipPath
       id="9a860ba6b0">
      <path
         d="M 337.5,13.214844 338.60937,361.23437 37.296875,362.19531 36.1875,14.175781 Z m 0,0"
         id="path16"
         inkscape:connector-curvature="0"
         style="clip-rule:nonzero" />
    </clipPath>
    <clipPath
       id="f9af30e351">
      <path
         d="M 337.5,13.214844 338.60937,361.23437 37.296875,362.19531 36.1875,14.175781 Z m 0,0"
         id="path19"
         inkscape:connector-curvature="0"
         style="clip-rule:nonzero" />
    </clipPath>
    <clipPath
       id="42934bd9ca">
      <path
         d="M 76.28125,176.48828 H 93 V 194 H 76.28125 Z m 0,0"
         id="path22"
         inkscape:connector-curvature="0"
         style="clip-rule:nonzero" />
    </clipPath>
    <clipPath
       id="5412b5b277">
      <path
         d="m 159,218 h 17.10937 v 18 H 159 Z m 0,0"
         id="path25"
         inkscape:connector-curvature="0"
         style="clip-rule:nonzero" />
    </clipPath>
    <clipPath
       id="52c63c8ddc">
      <path
         d="M 76.28125,218 H 93 v 18 H 76.28125 Z m 0,0"
         id="path28"
         inkscape:connector-curvature="0"
         style="clip-rule:nonzero" />
    </clipPath>
    <clipPath
       id="af33ed8403">
      <path
         d="M 76.28125,262 H 93 v 17.0625 H 76.28125 Z m 0,0"
         id="path31"
         inkscape:connector-curvature="0"
         style="clip-rule:nonzero" />
    </clipPath>
    <clipPath
       id="280e20a41c">
      <path
         d="m 79,176.48828 h 52 V 216 H 79 Z m 0,0"
         id="path34"
         inkscape:connector-curvature="0"
         style="clip-rule:nonzero" />
    </clipPath>
    <clipPath
       id="6af58aefcc">
      <path
         d="M 76.28125,178 H 135 v 78 H 76.28125 Z m 0,0"
         id="path37"
         inkscape:connector-curvature="0"
         style="clip-rule:nonzero" />
    </clipPath>
    <clipPath
       id="f0e18d5eb4">
      <path
         d="m 78,239 h 53 v 40.0625 H 78 Z m 0,0"
         id="path40"
         inkscape:connector-curvature="0"
         style="clip-rule:nonzero" />
    </clipPath>
    <clipPath
       id="a97c589c2d">
      <path
         d="M 76.28125,226 H 117 v 51 H 76.28125 Z m 0,0"
         id="path43"
         inkscape:connector-curvature="0"
         style="clip-rule:nonzero" />
    </clipPath>
    <clipPath
       id="e0e34f9c3c">
      <path
         d="M 29.101562,0 H 354.60156 V 374.99609 H 29.101562 Z m 0,0"
         id="path4-4"
         inkscape:connector-curvature="0"
         style="clip-rule:nonzero" />
    </clipPath>
    <clipPath
       id="4b88b692c4">
      <path
         d="M 43.207031,15.964844 H 340.20703 V 358.71484 H 43.207031 Z m 0,0"
         id="path7-9"
         inkscape:connector-curvature="0"
         style="clip-rule:nonzero" />
    </clipPath>
    <clipPath
       id="3892a3b921">
      <path
         d="M 80.457031,176.48828 H 98 V 194 H 80.457031 Z m 0,0"
         id="path10-9"
         inkscape:connector-curvature="0"
         style="clip-rule:nonzero" />
    </clipPath>
    <clipPath
       id="7006a58869">
      <path
         d="m 163,218 h 17.20703 v 18 H 163 Z m 0,0"
         id="path13-2"
         inkscape:connector-curvature="0"
         style="clip-rule:nonzero" />
    </clipPath>
    <clipPath
       id="d445b00001">
      <path
         d="M 80.457031,218 H 98 v 18 H 80.457031 Z m 0,0"
         id="path16-2"
         inkscape:connector-curvature="0"
         style="clip-rule:nonzero" />
    </clipPath>
    <clipPath
       id="4ac165e86e">
      <path
         d="M 80.457031,262 H 98 v 17.23828 H 80.457031 Z m 0,0"
         id="path19-5"
         inkscape:connector-curvature="0"
         style="clip-rule:nonzero" />
    </clipPath>
    <clipPath
       id="16373fd7c8">
      <path
         d="m 83,176.48828 h 52 V 216 H 83 Z m 0,0"
         id="path22-7"
         inkscape:connector-curvature="0"
         style="clip-rule:nonzero" />
    </clipPath>
    <clipPath
       id="6831b6dd29">
      <path
         d="M 80.457031,178 H 139 v 78 H 80.457031 Z m 0,0"
         id="path25-6"
         inkscape:connector-curvature="0"
         style="clip-rule:nonzero" />
    </clipPath>
    <clipPath
       id="9765dbf4ca">
      <path
         d="m 82,239 h 54 v 40.23828 H 82 Z m 0,0"
         id="path28-7"
         inkscape:connector-curvature="0"
         style="clip-rule:nonzero" />
    </clipPath>
    <clipPath
       id="4d9529def2">
      <path
         d="M 80.457031,226 H 121 v 51 H 80.457031 Z m 0,0"
         id="path31-5"
         inkscape:connector-curvature="0"
         style="clip-rule:nonzero" />
    </clipPath>
  </defs>
  <g
     clip-path="url(#4b88b692c4)"
     id="g42"
     transform="matrix(1.0431942,0,0,1.0281512,-37.429504,-5.1156384)">
    <path
       d="M 340.09766,273.01953 191.67187,358.71484 43.246094,273.01953 V 101.62891 L 191.67187,15.929688 340.09766,101.62891 Z m 0,0"
       id="path40-4"
       inkscape:connector-curvature="0"
       style="fill:#fafaf7;fill-opacity:1;fill-rule:nonzero" />
  </g>
  <g
     clip-path="url(#e0e34f9c3c)"
     id="g38"
     transform="translate(-29.148438)">
    <path
       d="M 40.410156,100.02344 191.67187,12.71875 342.93359,100.02344 V 274.62891 L 191.67187,362.00781 40.410156,274.62891 V 100.02344 M 29.148438,93.492188 V 281.16016 L 191.67187,374.99609 354.19141,281.16016 V 93.492188 L 191.67187,-0.34375 Z m 0,0"
       id="path36"
       inkscape:connector-curvature="0"
       style="fill:#63365a;fill-opacity:1;fill-rule:nonzero" />
  </g>
  <g
     id="g50"
     style="fill:#00274c;fill-opacity:1"
     transform="translate(-29.148438)">
    <g
       transform="translate(69.879978,155.3644)"
       id="g48">
      <g
         id="g46">
        <path
           d="m 29.828125,-68.828125 c 3.65625,0 7.226563,0.539063 10.71875,1.609375 3.5,1.0625 6.097656,2.109375 7.796875,3.140625 l 2.453125,1.640625 -6.21875,12.296875 c -0.492187,-0.332031 -1.171875,-0.753906 -2.046875,-1.265625 -0.875,-0.519531 -2.515625,-1.21875 -4.921875,-2.09375 -2.40625,-0.875 -4.648437,-1.3125 -6.71875,-1.3125 -2.5625,0 -4.542969,0.546875 -5.9375,1.640625 -1.398437,1.09375 -2.09375,2.570313 -2.09375,4.421875 0,0.929688 0.328125,1.789062 0.984375,2.578125 0.65625,0.792969 1.773438,1.640625 3.359375,2.546875 1.582031,0.898438 2.972656,1.621094 4.171875,2.171875 1.207031,0.542969 3.066406,1.359375 5.578125,2.453125 4.375,1.855469 8.101563,4.382812 11.1875,7.578125 3.082031,3.199219 4.625,6.820313 4.625,10.859375 0,3.875 -0.699219,7.261719 -2.09375,10.15625 -1.386719,2.898438 -3.296875,5.167969 -5.734375,6.8125 -2.429688,1.636719 -5.117188,2.851562 -8.0625,3.640625 -2.949219,0.789063 -6.148438,1.1875 -9.59375,1.1875 -2.949219,0 -5.84375,-0.304687 -8.6875,-0.90625 -2.835938,-0.601563 -5.210938,-1.351563 -7.125,-2.25 C 9.5625,-2.828125 7.84375,-3.71875 6.3125,-4.59375 4.78125,-5.46875 3.660156,-6.203125 2.953125,-6.796875 l -1.0625,-0.90625 7.703125,-12.9375 c 0.644531,0.542969 1.539062,1.242187 2.6875,2.09375 1.15625,0.84375 3.191406,1.976563 6.109375,3.390625 2.925781,1.417969 5.507813,2.125 7.75,2.125 6.5,0 9.75,-2.210938 9.75,-6.640625 0,-0.925781 -0.234375,-1.785156 -0.703125,-2.578125 -0.460938,-0.789062 -1.277344,-1.582031 -2.453125,-2.375 -1.179687,-0.789062 -2.21875,-1.414062 -3.125,-1.875 -0.898437,-0.46875 -2.371094,-1.179688 -4.421875,-2.140625 -2.042969,-0.957031 -3.558594,-1.679687 -4.546875,-2.171875 -4.09375,-2.019531 -7.261719,-4.546875 -9.5,-7.578125 -2.242187,-3.03125 -3.359375,-6.289063 -3.359375,-9.78125 0,-6.070313 2.238281,-11.03125 6.71875,-14.875 4.476562,-3.851563 9.585938,-5.78125 15.328125,-5.78125 z m 0,0"
           id="path44"
           inkscape:connector-curvature="0" />
      </g>
    </g>
  </g>
  <g
     id="g58"
     style="fill:#00274c;fill-opacity:1"
     transform="translate(-29.148438)">
    <g
       transform="translate(124.93379,155.3644)"
       id="g56">
      <g
         id="g54">
        <path
           d="m 27.28125,-31.375 c -2.730469,0 -5.078125,1.011719 -7.046875,3.03125 -1.96875,2.023438 -2.953125,4.449219 -2.953125,7.28125 0,2.898438 0.984375,5.355469 2.953125,7.375 1.96875,2.023438 4.316406,3.03125 7.046875,3.03125 1.3125,0 2.554688,-0.160156 3.734375,-0.484375 1.175781,-0.332031 2.035156,-0.660156 2.578125,-0.984375 l 0.734375,-0.5 L 39.25,-2.546875 c -0.386719,0.28125 -0.921875,0.625 -1.609375,1.03125 -0.679687,0.40625 -2.234375,0.964844 -4.671875,1.671875 -2.429688,0.71875 -5.03125,1.078125 -7.8125,1.078125 -6.179688,0 -11.601562,-2.171875 -16.265625,-6.515625 -4.667969,-4.34375 -7,-9.546875 -7,-15.609375 0,-6.125 2.332031,-11.382813 7,-15.78125 4.664063,-4.394531 10.085937,-6.59375 16.265625,-6.59375 2.78125,0 5.34375,0.328125 7.6875,0.984375 2.351562,0.65625 4.023438,1.3125 5.015625,1.96875 l 1.390625,0.984375 -4.921875,9.90625 C 32.523438,-30.722656 30.175781,-31.375 27.28125,-31.375 Z m 0,0"
           id="path52"
           inkscape:connector-curvature="0" />
      </g>
    </g>
  </g>
  <g
     id="g66"
     style="fill:#00274c;fill-opacity:1"
     transform="translate(-29.148438)">
    <g
       transform="translate(165.15912,155.3644)"
       id="g64">
      <g
         id="g62">
        <path
           d="m 6.296875,-65.46875 c 1.695313,-1.695312 3.71875,-2.546875 6.0625,-2.546875 2.351563,0 4.375,0.851563 6.0625,2.546875 1.695313,1.699219 2.546875,3.726562 2.546875,6.078125 0,2.34375 -0.851562,4.367187 -2.546875,6.0625 -1.6875,1.6875 -3.710937,2.53125 -6.0625,2.53125 -2.34375,0 -4.367187,-0.84375 -6.0625,-2.53125 -1.6875,-1.695313 -2.53125,-3.71875 -2.53125,-6.0625 0,-2.351563 0.84375,-4.378906 2.53125,-6.078125 z m -1.375,23.4375 V 0 h 14.5 v -42.03125 z m 0,0"
           id="path60"
           inkscape:connector-curvature="0" />
      </g>
    </g>
  </g>
  <g
     id="g74"
     style="fill:#00274c;fill-opacity:1"
     transform="translate(-29.148438)">
    <g
       transform="translate(189.90056,155.3644)"
       id="g72">
      <g
         id="g70">
        <path
           d="m 44,-67.59375 v 13.515625 H 20.328125 v 13.4375 h 21.875 V -27.125 h -21.875 V 0 H 4.921875 v -67.59375 z m 0,0"
           id="path68"
           inkscape:connector-curvature="0" />
      </g>
    </g>
  </g>
  <g
     id="g82"
     style="fill:#00274c;fill-opacity:1"
     transform="translate(-29.148438)">
    <g
       transform="translate(236.35221,155.3644)"
       id="g80">
      <g
         id="g78">
        <path
           d="m 60.796875,0 -3.1875,-40.0625 H 57.1875 L 43.34375,-0.40625 H 34.171875 L 20.328125,-40.0625 H 19.90625 L 16.71875,0 H 1.3125 L 7.375,-67.59375 h 16.390625 l 14.984375,39 15,-39 H 70.140625 L 76.203125,0 Z m 0,0"
           id="path76"
           inkscape:connector-curvature="0" />
      </g>
    </g>
  </g>
  <g
     id="g90"
     style="fill:#2093b0;fill-opacity:1"
     transform="translate(-29.148438)">
    <g
       transform="translate(182.27138,259.77077)"
       id="g88">
      <g
         id="g86">
        <path
           d="m 33.65625,-63.15625 c -2.46875,0 -4.835938,1.226562 -7.09375,3.671875 -2.25,2.4375 -3.902344,4.867187 -4.953125,7.28125 l -1.578125,3.609375 -14.5625,-7.046875 c 0.1875,-0.613281 0.492188,-1.414063 0.921875,-2.40625 0.4375,-0.988281 1.457031,-2.765625 3.0625,-5.328125 1.613281,-2.570312 3.394531,-4.832031 5.34375,-6.78125 1.945313,-1.945312 4.601563,-3.722656 7.96875,-5.328125 3.363281,-1.601563 6.992187,-2.40625 10.890625,-2.40625 5.007812,0 9.382812,0.636719 13.125,1.90625 3.738281,1.261719 6.628906,2.835937 8.671875,4.71875 2.039063,1.886719 3.691406,4.117187 4.953125,6.6875 1.269531,2.5625 2.078125,4.898437 2.421875,7 0.34375,2.09375 0.515625,4.289063 0.515625,6.578125 0,3.335938 -0.929688,6.84375 -2.78125,10.53125 -1.855469,3.679688 -4.101562,6.953125 -6.734375,9.828125 -2.625,2.867187 -5.265625,5.492187 -7.921875,7.875 -2.65625,2.375 -4.914062,4.214844 -6.765625,5.515625 l -2.78125,1.953125 h 28.375 V 0 H 5.09375 v -4.359375 c 1.050781,-0.863281 2.472656,-2.050781 4.265625,-3.5625 1.800781,-1.519531 4.957031,-4.410156 9.46875,-8.671875 4.507813,-4.269531 8.492187,-8.273438 11.953125,-12.015625 3.46875,-3.738281 6.625,-7.738281 9.46875,-12 2.84375,-4.269531 4.265625,-7.734375 4.265625,-10.390625 0,-1.050781 -0.109375,-2.101562 -0.328125,-3.15625 -0.21875,-1.050781 -0.636719,-2.332031 -1.25,-3.84375 -0.617188,-1.519531 -1.730469,-2.757812 -3.34375,-3.71875 -1.605469,-0.957031 -3.585938,-1.4375 -5.9375,-1.4375 z m 0,0"
           id="path84"
           inkscape:connector-curvature="0" />
      </g>
    </g>
  </g>
  <g
     id="g98"
     style="fill:#2093b0;fill-opacity:1"
     transform="translate(-29.148438)">
    <g
       transform="translate(252.09652,259.77077)"
       id="g96">
      <g
         id="g94">
        <path
           d="m 51.65625,-31.4375 h 8.90625 v 15.296875 H 51.65625 V 0 H 35.328125 V -16.140625 H -2.3125 v -5.1875 L 34.40625,-76.5 h 17.25 z M 35.328125,-53.234375 h -0.1875 l -13.625,21.796875 h 13.8125 z m 0,0"
           id="path92"
           inkscape:connector-curvature="0" />
      </g>
    </g>
  </g>
  <path
     d="m 68.265824,232.88677 22.906261,11.66016"
     stroke-miterlimit="4"
     id="path100"
     inkscape:connector-curvature="0"
     style="fill:#120000;fill-opacity:1;fill-rule:nonzero;stroke:#83b2a8;stroke-width:2.62069821;stroke-linecap:butt;stroke-linejoin:miter;stroke-miterlimit:4;stroke-opacity:1" />
  <g
     clip-path="url(#3892a3b921)"
     id="g104"
     transform="translate(-29.148438)">
    <path
       d="m 97.082031,184.79687 c 0,0.54688 -0.05078,1.08594 -0.160156,1.625 -0.105469,0.53516 -0.261719,1.05469 -0.46875,1.5586 -0.207031,0.5039 -0.464844,0.98047 -0.765625,1.43359 -0.300781,0.45703 -0.644531,0.875 -1.03125,1.26172 -0.382812,0.38672 -0.800781,0.73047 -1.253906,1.03516 -0.453125,0.30078 -0.929688,0.55859 -1.429688,0.76562 -0.503906,0.21094 -1.023437,0.36719 -1.554687,0.47266 -0.535157,0.10547 -1.074219,0.16015 -1.617188,0.16015 -0.542969,0 -1.082031,-0.0547 -1.613281,-0.16015 -0.535156,-0.10547 -1.050781,-0.26172 -1.554688,-0.47266 -0.503906,-0.20703 -0.980468,-0.46484 -1.433593,-0.76562 -0.449219,-0.30469 -0.867188,-0.64844 -1.253907,-1.03516 -0.382812,-0.38672 -0.726562,-0.80469 -1.03125,-1.26172 -0.300781,-0.45312 -0.554687,-0.92969 -0.761718,-1.43359 -0.210938,-0.50391 -0.367188,-1.02344 -0.472656,-1.5586 -0.105469,-0.53906 -0.160157,-1.07812 -0.160157,-1.625 0,-0.54296 0.05469,-1.08593 0.160157,-1.62109 0.105468,-0.53516 0.261718,-1.05469 0.472656,-1.55859 0.207031,-0.50391 0.460937,-0.98438 0.761718,-1.4375 0.304688,-0.45313 0.648438,-0.8711 1.03125,-1.25782 0.386719,-0.38671 0.804688,-0.73046 1.253907,-1.03515 0.453125,-0.30078 0.929687,-0.5586 1.433593,-0.76563 0.503907,-0.21093 1.019532,-0.36718 1.554688,-0.47265 0.53125,-0.10938 1.070312,-0.16016 1.613281,-0.16016 0.542969,0 1.082031,0.0508 1.617188,0.16016 0.53125,0.10547 1.050781,0.26172 1.550781,0.47265 0.503906,0.20703 0.980469,0.46485 1.433594,0.76563 0.453125,0.30469 0.871094,0.64844 1.253906,1.03515 0.386719,0.38672 0.730469,0.80469 1.03125,1.25782 0.300781,0.45703 0.558594,0.93359 0.765625,1.4375 0.207031,0.5039 0.363281,1.02343 0.46875,1.55859 0.109375,0.53516 0.160156,1.07813 0.160156,1.62109 z m 0,0"
       id="path102"
       inkscape:connector-curvature="0"
       style="fill:#2093b0;fill-opacity:1;fill-rule:nonzero" />
  </g>
  <path
     d="m 108.76172,205.18359 c 0,0.54688 -0.0508,1.08594 -0.15625,1.6211 -0.10938,0.53515 -0.26563,1.05468 -0.47266,1.55859 -0.20703,0.50391 -0.46484,0.98438 -0.76563,1.4375 -0.30078,0.45313 -0.64453,0.875 -1.03125,1.25781 -0.38281,0.38672 -0.80078,0.73047 -1.2539,1.03516 -0.45313,0.30469 -0.92969,0.55859 -1.42969,0.76953 -0.50391,0.20703 -1.02344,0.36328 -1.55469,0.47266 -0.53515,0.10547 -1.07422,0.16015 -1.61718,0.16015 -0.542968,0 -1.082038,-0.0547 -1.613288,-0.16015 -0.53515,-0.10938 -1.05078,-0.26563 -1.55468,-0.47266 -0.50391,-0.21094 -0.98047,-0.46484 -1.4336,-0.76953 -0.44921,-0.30469 -0.86718,-0.64844 -1.2539,-1.03516 -0.38281,-0.38281 -0.72656,-0.80468 -1.02735,-1.25781 -0.30468,-0.45312 -0.55859,-0.93359 -0.76562,-1.4375 -0.21094,-0.50391 -0.36719,-1.02344 -0.47266,-1.55859 -0.10547,-0.53516 -0.16015,-1.07422 -0.16015,-1.6211 0,-0.54687 0.0547,-1.08593 0.16015,-1.62109 0.10547,-0.53516 0.26172,-1.05469 0.47266,-1.55859 0.20703,-0.50391 0.46094,-0.98438 0.76562,-1.4375 0.30079,-0.45313 0.64454,-0.875 1.02735,-1.26172 0.38672,-0.38282 0.80469,-0.73047 1.2539,-1.03125 0.45313,-0.30469 0.92969,-0.5586 1.4336,-0.76953 0.5039,-0.20704 1.01953,-0.36719 1.55468,-0.47266 0.53125,-0.10547 1.07032,-0.16016 1.613288,-0.16016 0.54296,0 1.08203,0.0547 1.61718,0.16016 0.53125,0.10547 1.05078,0.26562 1.55469,0.47266 0.5,0.21093 0.97656,0.46484 1.42969,0.76953 0.45312,0.30078 0.87109,0.64843 1.2539,1.03125 0.38672,0.38672 0.73047,0.80859 1.03125,1.26172 0.30079,0.45312 0.5586,0.93359 0.76563,1.4375 0.20703,0.5039 0.36328,1.02343 0.47266,1.55859 0.10546,0.53516 0.15625,1.07422 0.15625,1.62109 z m 0,0"
     id="path106"
     inkscape:connector-curvature="0"
     style="fill:#2093b0;fill-opacity:1;fill-rule:nonzero" />
  <g
     clip-path="url(#7006a58869)"
     id="g110"
     transform="translate(-29.148438)">
    <path
       d="m 180.17969,227.26172 c 0,0.54687 -0.0508,1.08594 -0.15625,1.62109 -0.10938,0.53516 -0.26563,1.0586 -0.47266,1.5625 -0.20703,0.50391 -0.46484,0.98047 -0.76562,1.4336 -0.30079,0.45703 -0.64454,0.875 -1.03125,1.26171 -0.38282,0.38672 -0.80079,0.73047 -1.25391,1.03125 -0.45313,0.30469 -0.92969,0.5625 -1.42969,0.76954 -0.5039,0.21093 -1.02344,0.36718 -1.55469,0.47265 -0.53515,0.10547 -1.07421,0.16016 -1.61718,0.16016 -0.54297,0 -1.08203,-0.0547 -1.61328,-0.16016 -0.53516,-0.10547 -1.05079,-0.26172 -1.55469,-0.47265 -0.50391,-0.20704 -0.98047,-0.46485 -1.4336,-0.76954 -0.44921,-0.30078 -0.86718,-0.64453 -1.2539,-1.03125 -0.38281,-0.38671 -0.72656,-0.80468 -1.02735,-1.26171 -0.30468,-0.45313 -0.55859,-0.92969 -0.76562,-1.4336 -0.21094,-0.5039 -0.36719,-1.02734 -0.47266,-1.5625 -0.10547,-0.53515 -0.16015,-1.07422 -0.16015,-1.62109 0,-0.54297 0.0547,-1.08594 0.16015,-1.6211 0.10547,-0.53515 0.26172,-1.05468 0.47266,-1.55859 0.20703,-0.50391 0.46094,-0.98437 0.76562,-1.4375 0.30079,-0.45312 0.64454,-0.87109 1.02735,-1.25781 0.38672,-0.38672 0.80469,-0.73047 1.2539,-1.03516 0.45313,-0.30078 0.92969,-0.55859 1.4336,-0.76562 0.5039,-0.21094 1.01953,-0.36719 1.55469,-0.47266 0.53125,-0.10937 1.07031,-0.16016 1.61328,-0.16016 0.54297,0 1.08203,0.0508 1.61718,0.16016 0.53125,0.10547 1.05079,0.26172 1.55469,0.47266 0.5,0.20703 0.97656,0.46484 1.42969,0.76562 0.45312,0.30469 0.87109,0.64844 1.25391,1.03516 0.38671,0.38672 0.73046,0.80469 1.03125,1.25781 0.30078,0.45313 0.55859,0.93359 0.76562,1.4375 0.20703,0.50391 0.36328,1.02344 0.47266,1.55859 0.10547,0.53516 0.15625,1.07813 0.15625,1.6211 z m 0,0"
       id="path108"
       inkscape:connector-curvature="0"
       style="fill:#2093b0;fill-opacity:1;fill-rule:nonzero" />
  </g>
  <path
     d="m 108.43359,249.26172 c 0,0.54297 -0.0547,1.08594 -0.16016,1.62109 -0.10546,0.53516 -0.26171,1.05469 -0.47265,1.5586 -0.20703,0.5039 -0.46094,0.98046 -0.76172,1.4375 -0.30469,0.45312 -0.64844,0.87109 -1.03125,1.25781 -0.38672,0.38672 -0.80469,0.73047 -1.25391,1.03515 -0.45312,0.30079 -0.92968,0.5586 -1.43359,0.76563 -0.5,0.21094 -1.01953,0.36719 -1.55469,0.47266 -0.53125,0.10937 -1.07031,0.16015 -1.61328,0.16015 -0.542968,0 -1.082028,-0.0508 -1.617188,-0.16015 -0.53125,-0.10547 -1.05078,-0.26172 -1.55078,-0.47266 -0.5039,-0.20703 -0.98047,-0.46484 -1.43359,-0.76563 -0.45313,-0.30468 -0.87109,-0.64843 -1.25391,-1.03515 -0.38672,-0.38672 -0.73047,-0.80469 -1.03125,-1.25781 -0.30078,-0.45704 -0.55468,-0.9336 -0.76562,-1.4375 -0.20703,-0.50391 -0.36328,-1.02344 -0.46875,-1.5586 -0.10938,-0.53515 -0.16016,-1.07812 -0.16016,-1.62109 0,-0.54688 0.0508,-1.08985 0.16016,-1.625 0.10547,-0.53516 0.26172,-1.05469 0.46875,-1.5586 0.20703,-0.5039 0.46484,-0.98046 0.76562,-1.4375 0.30078,-0.45312 0.64453,-0.87109 1.03125,-1.25781 0.38282,-0.38672 0.80078,-0.73047 1.25391,-1.03515 0.45312,-0.30079 0.92969,-0.5586 1.43359,-0.76563 0.5,-0.21094 1.01953,-0.36719 1.55078,-0.47266 0.53516,-0.10546 1.07422,-0.16015 1.617188,-0.16015 0.54297,0 1.08203,0.0547 1.61328,0.16015 0.53516,0.10547 1.05469,0.26172 1.55469,0.47266 0.50391,0.20703 0.98047,0.46484 1.43359,0.76563 0.44922,0.30468 0.86719,0.64843 1.25391,1.03515 0.38281,0.38672 0.72656,0.80469 1.03125,1.25781 0.30078,0.45704 0.55469,0.9336 0.76172,1.4375 0.21094,0.50391 0.36719,1.02344 0.47265,1.5586 0.10547,0.53515 0.16016,1.07812 0.16016,1.625 z m 0,0"
     id="path112"
     inkscape:connector-curvature="0"
     style="fill:#2093b0;fill-opacity:1;fill-rule:nonzero" />
  <g
     clip-path="url(#d445b00001)"
     id="g116"
     transform="translate(-29.148438)">
    <path
       d="m 97.042969,227.09766 c 0,0.54687 -0.05469,1.08593 -0.160157,1.62109 -0.105468,0.53516 -0.261718,1.05469 -0.472656,1.55859 -0.207031,0.50391 -0.460937,0.98438 -0.765625,1.4375 -0.300781,0.45313 -0.644531,0.875 -1.027343,1.26172 -0.386719,0.38281 -0.804688,0.73047 -1.253907,1.03125 -0.453125,0.30469 -0.929687,0.5586 -1.433593,0.76953 -0.503907,0.20703 -1.019532,0.36719 -1.554688,0.47266 -0.53125,0.10547 -1.070312,0.16016 -1.613281,0.16016 -0.542969,0 -1.082031,-0.0547 -1.617188,-0.16016 -0.53125,-0.10547 -1.050781,-0.26563 -1.554687,-0.47266 -0.5,-0.21093 -0.976563,-0.46484 -1.429688,-0.76953 -0.453125,-0.30078 -0.871094,-0.64844 -1.253906,-1.03125 -0.386719,-0.38672 -0.730469,-0.80859 -1.03125,-1.26172 -0.300781,-0.45312 -0.558594,-0.93359 -0.765625,-1.4375 -0.207031,-0.5039 -0.363281,-1.02343 -0.472656,-1.55859 -0.105469,-0.53516 -0.15625,-1.07422 -0.15625,-1.62109 0,-0.54688 0.05078,-1.08594 0.15625,-1.6211 0.109375,-0.53515 0.265625,-1.05469 0.472656,-1.55859 0.207031,-0.50391 0.464844,-0.98438 0.765625,-1.4375 0.300781,-0.45313 0.644531,-0.875 1.03125,-1.25781 0.382812,-0.38672 0.800781,-0.73047 1.253906,-1.03516 0.453125,-0.30469 0.929688,-0.55859 1.429688,-0.76953 0.503906,-0.20703 1.023437,-0.36719 1.554687,-0.47266 0.535157,-0.10547 1.074219,-0.16015 1.617188,-0.16015 0.542969,0 1.082031,0.0547 1.613281,0.16015 0.535156,0.10547 1.050781,0.26563 1.554688,0.47266 0.503906,0.21094 0.980468,0.46484 1.433593,0.76953 0.449219,0.30469 0.867188,0.64844 1.253907,1.03516 0.382812,0.38281 0.726562,0.80468 1.027343,1.25781 0.304688,0.45312 0.558594,0.93359 0.765625,1.4375 0.210938,0.5039 0.367188,1.02344 0.472656,1.55859 0.105469,0.53516 0.160157,1.07422 0.160157,1.6211 z m 0,0"
       id="path114"
       inkscape:connector-curvature="0"
       style="fill:#2093b0;fill-opacity:1;fill-rule:nonzero" />
  </g>
  <g
     clip-path="url(#4ac165e86e)"
     id="g120"
     transform="translate(-29.148438)">
    <path
       d="m 97.125,270.92578 c 0,0.54688 -0.05469,1.08594 -0.160156,1.62109 -0.105469,0.53516 -0.261719,1.05469 -0.472656,1.5586 -0.207032,0.50781 -0.460938,0.98437 -0.765626,1.4375 -0.300781,0.45703 -0.644531,0.875 -1.027343,1.26172 -0.386719,0.38672 -0.804688,0.73047 -1.253907,1.03125 -0.453124,0.30468 -0.929687,0.5625 -1.433593,0.76953 -0.503907,0.20703 -1.019531,0.36719 -1.554688,0.47265 -0.53125,0.10547 -1.070312,0.16016 -1.613281,0.16016 -0.542969,0 -1.082031,-0.0547 -1.617188,-0.16016 -0.53125,-0.10546 -1.050781,-0.26562 -1.554687,-0.47265 -0.5,-0.20703 -0.976563,-0.46485 -1.429687,-0.76953 -0.453126,-0.30078 -0.871094,-0.64453 -1.253907,-1.03125 -0.386719,-0.38672 -0.730469,-0.80469 -1.03125,-1.26172 -0.300781,-0.45313 -0.558593,-0.92969 -0.765625,-1.4375 -0.207031,-0.50391 -0.363281,-1.02344 -0.472656,-1.5586 -0.105469,-0.53515 -0.15625,-1.07421 -0.15625,-1.62109 0,-0.54297 0.05078,-1.08594 0.15625,-1.62109 0.109375,-0.53516 0.265625,-1.05469 0.472656,-1.5586 0.207032,-0.5039 0.464844,-0.98437 0.765625,-1.4375 0.300781,-0.45312 0.644531,-0.87109 1.03125,-1.25781 0.382813,-0.38672 0.800781,-0.73047 1.253907,-1.03516 0.453124,-0.30078 0.929687,-0.55859 1.429687,-0.76562 0.503906,-0.21094 1.023437,-0.36719 1.554687,-0.47656 0.535157,-0.10547 1.074219,-0.15625 1.617188,-0.15625 0.542969,0 1.082031,0.0508 1.613281,0.15625 0.535157,0.10937 1.050781,0.26562 1.554688,0.47656 0.503906,0.20703 0.980469,0.46484 1.433593,0.76562 0.449219,0.30469 0.867188,0.64844 1.253907,1.03516 0.382812,0.38672 0.726562,0.80469 1.027343,1.25781 0.304688,0.45313 0.558594,0.9336 0.765626,1.4375 0.210937,0.50391 0.367187,1.02344 0.472656,1.5586 0.105468,0.53515 0.160156,1.07812 0.160156,1.62109 z m 0,0"
       id="path118"
       inkscape:connector-curvature="0"
       style="fill:#2093b0;fill-opacity:1;fill-rule:nonzero" />
  </g>
  <path
     d="m 109.63694,210.30083 c 24.00001,12.23047 24.00001,12.23047 24.00001,12.23047"
     stroke-miterlimit="4"
     id="path122"
     inkscape:connector-curvature="0"
     style="fill:#120000;fill-opacity:1;fill-rule:nonzero;stroke:#83b2a8;stroke-width:2.62069821;stroke-linecap:butt;stroke-linejoin:miter;stroke-miterlimit:4;stroke-opacity:1" />
  <path
     d="m 69.136718,189.56641 c 21.902344,11.16406 21.902344,11.16406 21.902344,11.16406"
     id="path124"
     inkscape:connector-curvature="0"
     style="fill:#120000;fill-opacity:1;fill-rule:nonzero" />
  <g
     clip-path="url(#16373fd7c8)"
     id="g128"
     transform="translate(-29.148438)">
    <path
       transform="matrix(0.871989,0,0,0.875146,-268.26894,81.382545)"
       d="m 420.36573,123.61811 c 25.1177,12.75681 25.1177,12.75681 25.1177,12.75681"
       stroke-miterlimit="4"
       id="path126"
       inkscape:connector-curvature="0"
       style="fill:none;stroke:#83b2a8;stroke-width:3;stroke-linecap:butt;stroke-linejoin:miter;stroke-miterlimit:4;stroke-opacity:1" />
  </g>
  <path
     d="m 64.226562,193.6875 c 30.32031,47.30469 30.32031,47.30469 30.32031,47.30469"
     id="path130"
     inkscape:connector-curvature="0"
     style="fill:#120000;fill-opacity:1;fill-rule:nonzero" />
  <g
     clip-path="url(#6831b6dd29)"
     id="g134"
     transform="translate(-29.148438)">
    <path
       transform="matrix(0.871989,0,0,0.875146,-268.26894,81.382545)"
       d="m 414.73474,128.32715 c 34.77146,54.0535 34.77146,54.0535 34.77146,54.0535"
       stroke-miterlimit="4"
       id="path132"
       inkscape:connector-curvature="0"
       style="fill:none;stroke:#83b2a8;stroke-width:3;stroke-linecap:butt;stroke-linejoin:miter;stroke-miterlimit:4;stroke-opacity:1" />
  </g>
  <path
     d="M 68.3125,265.94922 C 91.164062,253.98828 91.164062,253.98828 91.164062,253.98828"
     id="path136"
     inkscape:connector-curvature="0"
     style="fill:#120000;fill-opacity:1;fill-rule:nonzero" />
  <g
     clip-path="url(#9765dbf4ca)"
     id="g140"
     transform="translate(-29.148438)">
    <path
       transform="matrix(0.871989,0,0,0.875146,-268.26894,81.382545)"
       d="m 419.42051,210.89822 c 26.20627,-13.66737 26.20627,-13.66737 26.20627,-13.66737"
       stroke-miterlimit="4"
       id="path138"
       inkscape:connector-curvature="0"
       style="fill:none;stroke:#83b2a8;stroke-width:3;stroke-linecap:butt;stroke-linejoin:miter;stroke-miterlimit:4;stroke-opacity:1" />
  </g>
  <path
     d="m 109.05881,244.52739 c 24.57814,-12.86328 24.57814,-12.86328 24.57814,-12.86328"
     stroke-miterlimit="4"
     id="path142"
     inkscape:connector-curvature="0"
     style="fill:#120000;fill-opacity:1;fill-rule:nonzero;stroke:#83b2a8;stroke-width:2.62069821;stroke-linecap:butt;stroke-linejoin:miter;stroke-miterlimit:4;stroke-opacity:1" />
  <path
     d="m 80.605671,235.33989 c 3.234373,-5.07422 3.234373,-5.07422 3.234373,-5.07422"
     stroke-miterlimit="4"
     id="path144"
     inkscape:connector-curvature="0"
     style="fill:#120000;fill-opacity:1;fill-rule:nonzero;stroke:#83b2a8;stroke-width:2.62069821;stroke-linecap:butt;stroke-linejoin:miter;stroke-miterlimit:4;stroke-opacity:1" />
  <path
     d="m 68.312693,222.03911 c 7.792975,-4.02344 7.792975,-4.02344 7.792975,-4.02344"
     stroke-miterlimit="4"
     id="path146"
     inkscape:connector-curvature="0"
     style="fill:#120000;fill-opacity:1;fill-rule:nonzero;stroke:#83b2a8;stroke-width:2.62069821;stroke-linecap:butt;stroke-linejoin:miter;stroke-miterlimit:4;stroke-opacity:1" />
  <path
     d="m 81.746294,215.01176 c 9.703136,-5.00781 9.703136,-5.00781 9.703136,-5.00781"
     stroke-miterlimit="4"
     id="path148"
     inkscape:connector-curvature="0"
     style="fill:#120000;fill-opacity:1;fill-rule:nonzero;stroke:#83b2a8;stroke-width:2.62069821;stroke-linecap:butt;stroke-linejoin:miter;stroke-miterlimit:4;stroke-opacity:1" />
  <path
     d="m 87.797078,224.10942 c 6.828136,-10.70703 6.828136,-10.70703 6.828136,-10.70703"
     stroke-miterlimit="4"
     id="path150"
     inkscape:connector-curvature="0"
     style="fill:#120000;fill-opacity:1;fill-rule:nonzero;stroke:#83b2a8;stroke-width:2.62069821;stroke-linecap:butt;stroke-linejoin:miter;stroke-miterlimit:4;stroke-opacity:1" />
  <path
     d="m 63.757812,261.69922 c 13.17188,-20.66016 13.17188,-20.66016 13.17188,-20.66016"
     id="path152"
     inkscape:connector-curvature="0"
     style="fill:#120000;fill-opacity:1;fill-rule:nonzero" />
  <g
     clip-path="url(#4d9529def2)"
     id="g156"
     transform="translate(-29.148438)">
    <path
       transform="matrix(0.871989,0,0,0.875146,-268.26894,81.382545)"
       d="m 414.19718,206.04189 c 15.10556,-23.60768 15.10556,-23.60768 15.10556,-23.60768"
       stroke-miterlimit="4"
       id="path154"
       inkscape:connector-curvature="0"
       style="fill:none;stroke:#83b2a8;stroke-width:3;stroke-linecap:butt;stroke-linejoin:miter;stroke-miterlimit:4;stroke-opacity:1" />
  </g>
</svg>
