<svg id="Layer_1" height="512" viewBox="0 0 512 512" width="512" xmlns="http://www.w3.org/2000/svg" xmlns:xlink="http://www.w3.org/1999/xlink" data-name="Layer 1"><linearGradient id="GradientFill_1" gradientUnits="userSpaceOnUse" x1="256.001" x2="256.001" y1="409.011" y2="103.015"><stop offset="0" stop-color="#5cc4bb"/><stop offset=".097" stop-color="#50c1c0"/><stop offset=".501" stop-color="#25b4d2"/><stop offset=".815" stop-color="#0aacde"/><stop offset="1" stop-color="#00a9e2"/></linearGradient><path d="m3.1 179.836a16 16 0 0 1 3.434-22.364c29.446-21.607 56.347-36.368 82.242-45.131 23.962-8.109 46.521-10.887 68.97-8.5 41.182 4.381 74.132 25.614 106 46.148 58.777 37.879 114.3 73.658 223.916 6.727a16 16 0 0 1 16.675 27.312c-50.666 30.934-92.223 42.328-127.774 42.33-53.389 0-93.244-25.686-130.151-49.47-60.634-39.074-113-72.821-220.944 6.384a16 16 0 0 1 -22.368-3.436zm484.559 68.206c-109.62 66.93-165.138 31.15-223.916-6.727-31.865-20.535-64.815-41.768-106-46.148-22.447-2.39-45.008.393-68.97 8.5-25.9 8.762-52.8 23.524-82.242 45.131a16 16 0 0 0 18.931 25.8c107.945-79.2 160.31-45.457 220.944-6.385 36.908 23.785 76.762 49.474 130.151 49.471 35.551 0 77.108-11.4 127.774-42.33a16 16 0 0 0 -16.675-27.312zm0 91.326c-109.619 66.932-165.137 31.153-223.914-6.726-31.865-20.535-64.815-41.768-106-46.149-22.449-2.384-45.008.393-68.97 8.5-25.9 8.763-52.8 23.525-82.242 45.131a16 16 0 0 0 18.931 25.8c107.945-79.2 160.31-45.458 220.944-6.384 36.907 23.784 76.762 49.474 130.151 49.471 35.551 0 77.108-11.4 127.774-42.33a16 16 0 0 0 -16.675-27.313z" fill="url(#GradientFill_1)"/></svg>